<?xml version="1.0" encoding="UTF-8" standalone="no"?>
<!-- Created with Inkscape (http://www.inkscape.org/) -->

<svg
   xmlns:dc="http://purl.org/dc/elements/1.1/"
   xmlns:cc="http://creativecommons.org/ns#"
   xmlns:rdf="http://www.w3.org/1999/02/22-rdf-syntax-ns#"
   xmlns:svg="http://www.w3.org/2000/svg"
   xmlns="http://www.w3.org/2000/svg"
   xmlns:sodipodi="http://sodipodi.sourceforge.net/DTD/sodipodi-0.dtd"
   xmlns:inkscape="http://www.inkscape.org/namespaces/inkscape"
   version="1.1"
   width="16"
   height="16"
   id="svg2"
   inkscape:version="0.48.4 r9939"
   sodipodi:docname="logo_notext.svg"
   inkscape:export-filename="/home/diafygi/Desktop/logo_notext.png"
   inkscape:export-xdpi="90"
   inkscape:export-ydpi="90">
  <sodipodi:namedview
     pagecolor="#ffffff"
     bordercolor="#666666"
     borderopacity="1"
     objecttolerance="10"
     gridtolerance="10"
     guidetolerance="10"
     inkscape:pageopacity="0"
     inkscape:pageshadow="2"
     inkscape:window-width="1440"
     inkscape:window-height="851"
     id="namedview67"
     showgrid="false"
     inkscape:zoom="5.574419"
     inkscape:cx="-34.4372"
     inkscape:cy="37.592294"
     inkscape:window-x="0"
     inkscape:window-y="0"
     inkscape:window-maximized="1"
     inkscape:current-layer="g4022"
     fit-margin-top="0"
     fit-margin-left="0"
     fit-margin-right="0"
     fit-margin-bottom="0" />
  <style
     id="style4" />
  <defs
     id="defs6" />
  <metadata
     id="metadata8">
    <rdf:RDF>
      <cc:Work
         rdf:about="">
        <dc:format>image/svg+xml</dc:format>
        <dc:type
           rdf:resource="http://purl.org/dc/dcmitype/StillImage" />
        <dc:title></dc:title>
      </cc:Work>
    </rdf:RDF>
  </metadata>
  <g
     id="g4022"
     transform="matrix(0.04930963,0,0,0.04930963,-0.23620486,15.033055)">
    <g
       style="fill:#000000"
       id="g18"
       transform="matrix(0.86540461,0,0,0.86540461,-154.36205,-311.63516)">
      <path
         inkscape:connector-curvature="0"
         style="fill:#000000"
         id="path20"
         d="m 241.7267,241.25983 c -6.9044,1.15296 -14.95794,7.56705 -17.91506,14.14393 -1.31385,4.27479 -3.77876,7.72794 -6.73778,8.22206 -8.54767,3.45506 -15.94047,19.89728 -12.65012,27.4586 3.61977,9.53401 12.16934,12.16171 30.25292,11.16965 28.27642,-0.66646 78.7503,10.16806 130.37715,27.90697 51.79155,18.72525 71.02809,24.63758 74.97345,23.97875 2.95903,-0.49412 15.12646,5.58482 26.47226,12.81482 5.75525,4.10817 14.63424,8.70856 19.07373,11.00876 16.27751,6.40646 25.81152,2.78669 33.03961,-14.64187 1.47856,-3.28844 3.12183,-5.59054 5.25922,-4.93362 4.11008,0.32751 12.32833,-5.10023 14.46382,-10.52607 1.14914,-5.26112 -0.33323,-14.1382 -4.77273,-16.4384 -6.9063,-4.9298 -12.00272,-5.09261 -38.96338,-2.61817 -28.76864,3.79019 -43.23626,2.15074 -62.6375,-4.74794 -5.42584,-2.13549 -14.96175,-4.59848 -20.38759,-6.73397 -5.42584,-2.13548 -20.5523,-7.72031 -32.39031,-11.82657 -25.97813,-9.8558 -62.64322,-22.99623 -78.59132,-27.43 -15.12646,-5.58483 -28.60964,-13.47175 -38.47688,-23.9902 -8.71619,-9.6968 -14.47144,-13.80498 -20.38949,-12.81673 z m -1.32314,37.61162 c 0.22683,-0.15954 0.10212,0.61153 -0.14398,2.1734 -0.32751,4.11008 0.65883,3.94537 11.01638,5.25732 10.35754,1.31194 24.16824,5.08879 24.49766,7.06147 0.16471,0.98635 -1.97269,0.32942 -7.23381,-0.81972 -3.12374,-0.49222 -11.5086,-2.13358 -17.59136,-2.13168 -7.23382,-0.81973 -12.49494,-1.96887 -13.646,-2.7905 -1.15105,-0.82164 -0.49412,-2.95903 1.14915,-5.26113 1.1501,-2.21975 1.72514,-3.32962 1.95196,-3.48916 z m 214.58164,67.7013 c 0.98634,-0.16471 10.85167,4.27097 24.33486,12.1579 11.3458,7.23 13.31848,6.90058 18.08549,5.0907 6.57498,-3.12565 9.86342,-1.64709 4.43949,2.30019 -5.42393,3.94728 -7.39661,4.27669 -24.16824,-5.08879 -8.05736,-5.75144 -16.93635,-10.35183 -20.06008,-10.84405 -3.12374,-0.49222 -5.59055,-3.12183 -2.63152,-3.61595 z m 58.03734,-6.65005 c 0.46193,-0.0873 1.01593,-0.16965 1.63733,-0.27341 1.97268,-0.32942 4.11007,0.32751 4.27478,1.31385 0.49413,2.95902 -2.4649,3.45315 -5.75334,1.97459 -3.01576,-2.15268 -3.40711,-2.43204 -0.15877,-3.01503 z" />
      <path
         sodipodi:nodetypes="ccccccccccccccccscccccscc"
         inkscape:connector-curvature="0"
         style="fill:#000000"
         id="path22"
         d="m 314.08605,318.77434 -15.19962,4.22704 c -10.59387,4.43554 -31.25695,5.03731 -73.55892,-2.93406 -10.7534,-2.52279 -14.85371,-2.08984 -21.21316,0.045 -7.48902,2.98573 -10.0268,6.66807 -10.15114,14.72937 1.14456,6.22013 3.69733,9.60884 12.19159,13.83348 4.67259,2.67711 6.37444,4.93625 6.80739,9.03656 0.57228,3.11006 2.84641,8.47927 5.5385,10.87773 9.63882,10.44477 25.18914,7.58338 52.59244,-7.74825 7.62835,-3.97598 19.357,-8.38491 25.57713,-9.52947 9.46951,-2.70708 28.40854,-8.12125 52.57745,-14.8193 l 8.16143,-3.33596 c -19.42686,-5.53789 -31.00928,-8.51272 -43.32309,-14.38214 z m -92.8332,11.16154 c 0.77657,0.079 1.37396,0.35488 1.55186,0.88484 0.99025,0.13932 -0.27865,1.98049 -1.40822,2.83142 -3.24938,1.56252 -5.22988,1.28388 -5.94148,-0.83594 -0.5337,-1.58986 3.46673,-3.10731 5.79784,-2.88032 z m 7.89477,14.29938 c 0.46218,-0.12684 1.41254,1.87509 3.02374,6.07048 2.8464,8.47927 3.69733,9.60884 12.03727,7.75268 4.10031,-0.43296 4.10031,-0.43296 0.57228,3.11006 -2.25914,1.70185 -5.3692,2.27413 -9.33019,1.71684 -4.95124,-0.69661 -5.94148,-0.83594 -5.95647,-7.90699 -0.73309,-6.91962 -0.94451,-10.58482 -0.34663,-10.74307 z" />
      <path
         sodipodi:nodetypes="cccccccccccscccscccscc"
         inkscape:connector-curvature="0"
         style="fill:#000000"
         id="path24"
         d="m 500.52427,243.28377 c -1.97836,-0.4554 -3.94397,-0.54963 -5.75559,-0.17999 -2.16807,0.54725 -7.14834,4.57179 -12.12861,8.59632 -14.17885,13.265 -27.83139,19.47855 -54.82487,25.83086 -37.61911,8.1119 -63.38517,15.46085 -62.62321,16.65224 19.65191,7.90115 27.19421,10.12753 40.40666,15.57976 l 11.75431,-1.21299 c 28.73213,-4.94621 60.9588,-4.55966 80.92177,-2.21876 22.13104,1.79364 23.10772,2.00835 29.06466,-1.80147 4.98028,-4.02454 7.88937,-12.59992 4.50897,-20.51022 -0.33254,-3.14475 -4.14237,-9.1017 -8.38161,-13.10529 -5.21593,-4.21831 -7.28711,-8.76916 -6.85769,-10.72251 1.39563,-6.3484 -7.52245,-14.96417 -16.08479,-16.90795 z m -0.78844,37.77165 -0.0969,5.0981 c 0.87979,5.31282 -3.88577,8.36067 -9.74583,7.0724 -1.95336,-0.42943 -9.21952,0.0209 -16.48569,0.47131 -6.07477,-0.3116 -11.17287,-0.40849 -11.17287,-0.40849 0.42942,-1.95335 4.76556,-3.04785 20.05985,-2.7572 12.36427,-0.35348 13.34094,-0.13877 15.39118,-4.80744 l 2.05024,-4.66868 z" />
    </g>
    <g
       id="g10"
       transform="matrix(0.73150432,0,0,0.73150432,183.1504,-429.98538)">
      <g
         id="g12"
         transform="translate(1665.0911,-320.61845)">
        <g
           id="g14"
           transform="matrix(1.5237995,0,0,1.5237995,-2259.7241,397.9937)">
          <g
             style="fill:#000000"
             id="g16"
             transform="translate(-2.9949457,-5.8832273)">
            <g
               transform="matrix(1.4452668,0,0,1.0770169,-164.57869,-23.46275)"
               style="fill:#000000"
               id="g26">
              <path
                 inkscape:connector-curvature="0"
                 style="fill:#000000"
                 id="path28"
                 d="m 370.31194,228.72446 c -1,0 -2,1 -2,4 0,0 -1,6 1,5 2,0 6,2 5,-4 0,-3 -2,-5 -4,-5 z" />
              <path
                 inkscape:connector-curvature="0"
                 style="fill:#000000"
                 id="path30"
                 d="m 372.22185,249.25301 c -1,-5 -1,-8 3,-8 4,0 5,2 3,7 -2,5 -4,5 -6,1 z" />
              <path
                 inkscape:connector-curvature="0"
                 style="fill:#000000"
                 id="path32"
                 d="m 364.59272,227.80592 c -1,0 -3,3 -3,6 0,1 0,4 0,5 1,0 3,0 4,0 2,0 1,-6 1,-8 0,-2 -1,-3 -2,-3 0,0 0,0 0,0 z" />
              <path
                 inkscape:connector-curvature="0"
                 style="fill:#000000"
                 id="path34"
                 d="m 365.76951,249.82321 c -2,-2 -1,-8 1,-8 2,0 3,2 3,5 0,4 -2,5 -4,3 z" />
              <path
                 inkscape:connector-curvature="0"
                 style="fill:#000000"
                 id="path36"
                 d="m 381.79765,249.19711 c -2,-3 -1,-8 3,-8 2,0 3,1 3,4 -1,4 -4,6 -6,4 z" />
              <path
                 inkscape:connector-curvature="0"
                 style="fill:#000000"
                 id="path38"
                 d="m 357.82845,247.49738 c -2,-2 -1,-6 2,-6 1,0 2,2 2,4 0,3 -2,4 -4,2 z" />
              <path
                 inkscape:connector-curvature="0"
                 style="fill:#000000"
                 id="path40"
                 d="m 375.92719,237.88738 c -2,-2 1,-10 3,-10 3,1 4,10 0,11 -1,0 -3,0 -3,-1 z" />
              <path
                 inkscape:connector-curvature="0"
                 style="fill:#000000"
                 id="path42"
                 d="m 355.01388,235.72446 c -1,-4 0,-8 4,-8 1,0 2,2 2,5 0,6 -4,8 -6,3 z" />
              <path
                 inkscape:connector-curvature="0"
                 style="fill:#000000"
                 id="path44"
                 d="m 382.94428,233.1573 c 0,-4 1,-5 3,-5 2,1 3,2 3,5 0,3 -1,5 -3,5 -2,0 -3,-1 -3,-5 z" />
            </g>
            <g
               style="fill:#000000"
               id="g46">
              <path
                 inkscape:export-ydpi="4.48"
                 inkscape:export-xdpi="4.48"
                 inkscape:export-filename="/home/diafygi/Desktop/path48.png"
                 sodipodi:nodetypes="ccccccccsccc"
                 inkscape:connector-curvature="0"
                 style="fill:#000000"
                 id="path48"
                 d="m 358,277 c -9,-3 -10,-4 -21,-17 -8,-12 -9,-13 -11,-37 -1,-14 0,-15 9,-7 5,5 6,7 8,18 2.4709,9.99463 7.58729,15.52372 29.58729,15.52372 18.26071,-0.61128 25.5903,0.38759 33.82542,-17.52641 C 412.05786,219.73417 409,219 414,216 c 3,-2 6,-3 7,-3 2,0 0,32 -3,37 -3,7 -17,23 -21,25 -6,2 -31,4 -39,2 z" />
              <path
                 inkscape:connector-curvature="0"
                 style="fill:#000000"
                 id="path50"
                 d="m 373,67 c -20,1 -22,2 -33,7 -12,6 -26,19 -32,32 -4,8 -4,11 -4,28 0,17 0,20 4,27 2,5 5,8 5,7 1,0 1,-9 1,-19 0,-18 0,-19 6,-32 7,-13 14,-22 12,-14 -2,8 -6,16 -9,24 -4,8 -5,12 -5,27 0,16 0,19 -3,20 -6,2 -8,4 -8,7 -1,7 4,12 18,18 11,4 15,7 18,11 3,5 6,8 14,10 1,1 11,1 22,1 l 20,-1 8,-8 c 5,-6 10,-10 16,-12 19,-7 26,-21 13,-24 l -7,-2 0,-12 c 0,-12 1,-17 4,-17 1,0 1,5 1,11 0,13 2,14 8,6 5,-7 6,-38 2,-52 -5,-18 -21,-34 -41,-40 -7,-3 -13,-3 -30,-3 z m 2,101 c 2,0 7,20 7,27 0,4 0,4 -4,1 -4,-2 -5,-2 -9,0 -5,4 -6,3 -5,0 1,-2 1,-6 2,-9 2,-8 7,-19 9,-19 z" />
            </g>
          </g>
          <g
             id="g52">
            <g
               id="g54"
               transform="translate(0.3610352,0)">
              <g
                 id="g56"
                 transform="matrix(1.06193,0,0,1.06193,-21.967835,-22.979385)">
                <path
                   inkscape:connector-curvature="0"
                   style="fill:#000000;stroke:#ffffff;stroke-width:7.41579199;stroke-miterlimit:4;stroke-dasharray:none"
                   id="path58"
                   d="m 332.53,149.92 c 12.08,0 33.66,-0.11 37.16,-0.11 0,0.26 -0.01,0.34 -0.01,0.6 -2.44,0 -14.1,0 -19.43,0 7.84,1.61 10.66,4.73 12.38,8.8 0.69,-3.31 3.22,-4.45 7.06,-4.45 0,0.34 -0.02,0.18 -0.02,0.76 -1.72,-0.05 -4.99,0.1 -6.49,4.79 0.12,1.84 -0.29,4.02 -1.11,6.06 -5.58,13.96 -21.22,27.64 -33.88,27.64 -11.51,0 -21.07,-9.11 -21.07,-24.22 0,-17.23 12.96,-19.87 25.41,-19.87 z" />
              </g>
              <g
                 id="g60"
                 transform="matrix(-1.06193,0,0,1.06193,763.46257,-22.977952)">
                <path
                   inkscape:connector-curvature="0"
                   style="fill:#000000;stroke:#ffffff;stroke-width:7.41579199;stroke-miterlimit:4;stroke-dasharray:none"
                   id="path62"
                   d="m 332.53,149.92 c 12.08,0 33.66,-0.11 37.16,-0.11 0,0.26 -0.01,0.34 -0.01,0.6 -2.44,0 -14.1,0 -19.43,0 7.84,1.61 10.66,4.73 12.38,8.8 0.69,-3.31 3.22,-4.45 7.06,-4.45 0,0.34 -0.02,0.18 -0.02,0.76 -1.72,-0.05 -4.99,0.1 -6.49,4.79 0.12,1.84 -0.29,4.02 -1.11,6.06 -5.58,13.96 -21.22,27.64 -33.88,27.64 -11.51,0 -21.07,-9.11 -21.07,-24.22 0,-17.23 12.96,-19.87 25.41,-19.87 z" />
              </g>
            </g>
            <path
               inkscape:connector-curvature="0"
               style="fill:#ffffff"
               id="path64"
               d="m 318.84575,142.86601 c -2.39657,-1.01756 -9.95664,7.03077 -9.48446,15.93495 0.43414,8.21641 3.11455,1.02571 3.36869,-1.98954 0.76265,-8.77726 9.05366,-12.70281 6.11577,-13.94541 z" />
          </g>
        </g>
      </g>
    </g>
  </g>
</svg>
