<?xml version="1.0" encoding="UTF-8" standalone="no"?>
<!-- Created with Inkscape (http://www.inkscape.org/) -->

<svg
   xmlns:dc="http://purl.org/dc/elements/1.1/"
   xmlns:cc="http://creativecommons.org/ns#"
   xmlns:rdf="http://www.w3.org/1999/02/22-rdf-syntax-ns#"
   xmlns:svg="http://www.w3.org/2000/svg"
   xmlns="http://www.w3.org/2000/svg"
   xmlns:sodipodi="http://sodipodi.sourceforge.net/DTD/sodipodi-0.dtd"
   xmlns:inkscape="http://www.inkscape.org/namespaces/inkscape"
   version="1.1"
   width="1629.1484"
   height="519.45618"
   id="svg2"
   inkscape:version="0.48.4 r9939"
   sodipodi:docname="logo_twoline.svg"
   inkscape:export-filename="/home/diafygi/Dropbox/dev/diafygi.github.io/assets/logo_twoline.png"
   inkscape:export-xdpi="14.033908"
   inkscape:export-ydpi="14.033908">
  <sodipodi:namedview
     pagecolor="#ffffff"
     bordercolor="#666666"
     borderopacity="1"
     objecttolerance="10"
     gridtolerance="10"
     guidetolerance="10"
     inkscape:pageopacity="1"
     inkscape:pageshadow="2"
     inkscape:window-width="1391"
     inkscape:window-height="876"
     id="namedview67"
     showgrid="false"
     inkscape:zoom="0.34840119"
     inkscape:cx="976.15945"
     inkscape:cy="100.0463"
     inkscape:window-x="49"
     inkscape:window-y="24"
     inkscape:window-maximized="1"
     inkscape:current-layer="svg2"
     fit-margin-top="5"
     fit-margin-left="5"
     fit-margin-right="5"
     fit-margin-bottom="5" />
  <style
     id="style4" />
  <defs
     id="defs6" />
  <metadata
     id="metadata8">
    <rdf:RDF>
      <cc:Work
         rdf:about="">
        <dc:format>image/svg+xml</dc:format>
        <dc:type
           rdf:resource="http://purl.org/dc/dcmitype/StillImage" />
        <dc:title></dc:title>
      </cc:Work>
    </rdf:RDF>
  </metadata>
  <g
     transform="translate(284.59207,-165.50496)"
     id="g10">
    <g
       transform="translate(1665.0911,-320.61845)"
       id="g12">
      <g
         transform="matrix(1.5237995,0,0,1.5237995,-2259.7241,397.9937)"
         id="g14">
        <g
           transform="translate(-2.9949457,-5.8832273)"
           id="g16"
           style="fill:#000000">
          <g
             id="g18"
             style="fill:#000000">
            <path
               d="m 255,221 c -7,0 -16,5 -20,11 -2,4 -5,7 -8,7 -9,2 -19,17 -17,25 2,10 10,14 28,16 28,4 76,23 124,49 48,27 66,36 70,36 3,0 14,8 24,17 5,5 13,11 17,14 15,9 25,7 35,-9 2,-3 4,-5 6,-4 4,1 13,-3 16,-8 2,-5 2,-14 -2,-17 -6,-6 -11,-7 -38,-9 -29,-1 -43,-5 -61,-15 -5,-3 -14,-7 -19,-10 -5,-3 -19,-11 -30,-17 -24,-14 -58,-33 -73,-40 -14,-8 -26,-18 -34,-30 -7,-11 -12,-16 -18,-16 z m -7.5,36.88 c 0.25,-0.12 0,0.62 -0.5,2.12 -1,4 0,4 10,7 10,3 23,9 23,11 0,1 -2,0 -7,-2 -3,-1 -11,-4 -17,-5 -7,-2 -12,-4 -13,-5 -1,-1 0,-3 2,-5 1.5,-2 2.25,-3 2.5,-3.12 z M 448,360 c 1,0 10,6 22,16 10,9 12,9 17,8 7,-2 10,0 4,3 -6,3 -8,3 -23,-9 -7,-7 -15,-13 -18,-14 -3,-1 -5,-4 -2,-4 z m 58.34,3 c 0.47,-0.01 1.03,0 1.66,0 2,0 4,1 4,2 0,3 -3,3 -6,1 -2.62,-2.62 -2.96,-2.96 0.34,-3 z"
               id="path20"
               style="fill:#000000"
               inkscape:connector-curvature="0" />
            <path
               d="m 339,320 -16,8 c -29,13 -41,15 -84,13 -11,-1 -15,0 -21,3 -7,4 -9,8 -8,16 2,6 5,9 14,12 5,2 7,4 8,8 1,3 4,8 7,10 11,9 26,4 51,-15 7,-5 18,-11 24,-13 9,-4 27,-12 50,-22 l 5,-2 -8,-5 c -5,-3 -12,-7 -15,-9 l -7,-4 z m -102.66,31.34 c 0.78,-0.03 1.41,0.16 1.66,0.66 1,0 0,2 -1,3 -3,2 -5,2 -6,0 -0.75,-1.5 3,-3.56 5.34,-3.66 z m 9.81,13.06 c 0.44,-0.19 1.66,1.66 3.84,5.59 4,8 5,9 13,6 4,-1 4,-1 1,3 -2,2 -5,3 -9,3 -5,0 -6,0 -7,-7 -1.69,-6.75 -2.41,-10.35 -1.84,-10.59 z"
               id="path22"
               style="fill:#000000"
               inkscape:connector-curvature="0" />
            <path
               d="m 497.66,226.94 c -2.03,-0.02 -3.97,0.31 -5.66,1.06 -2,1 -6,6 -10,11 -11,16 -23,25 -48,37 -35,16 -54,25 -53,26 0,1 7,5 14,9 l 14,8 18,-7 c 27,-11 62,-21 82,-23 22,-3 23,-3 28,-8 4,-5 5,-14 0,-21 -1,-3 -6,-8 -11,-11 -6,-3 -9,-7 -9,-9 0,-6.5 -10.56,-13 -19.34,-13.06 z M 505,264 l 1,5 c 2,5 -2,9 -8,9 -2,0 -9,2 -16,4 -6,1 -11,2 -11,2 0,-2 4,-4 19,-7 12,-3 13,-3 14,-8 l 1,-5 z"
               id="path24"
               style="fill:#000000"
               inkscape:connector-curvature="0" />
          </g>
          <g
             id="g26"
             style="fill:#000000">
            <path
               d="m 373,224 c -1,0 -2,1 -2,4 0,0 -1,6 1,5 2,0 6,2 5,-4 0,-3 -2,-5 -4,-5 z"
               id="path28"
               style="fill:#000000"
               inkscape:connector-curvature="0" />
            <path
               d="m 371,253 c -1,-5 -1,-8 3,-8 4,0 5,2 3,7 -2,5 -4,5 -6,1 z"
               id="path30"
               style="fill:#000000"
               inkscape:connector-curvature="0" />
            <path
               d="m 365,223 c -1,0 -3,3 -3,6 0,1 0,4 0,5 1,0 3,0 4,0 2,0 1,-6 1,-8 0,-2 -1,-3 -2,-3 0,0 0,0 0,0 z"
               id="path32"
               style="fill:#000000"
               inkscape:connector-curvature="0" />
            <path
               d="m 363,253 c -2,-2 -1,-8 1,-8 2,0 3,2 3,5 0,4 -2,5 -4,3 z"
               id="path34"
               style="fill:#000000"
               inkscape:connector-curvature="0" />
            <path
               d="m 385,253 c -2,-3 -1,-8 3,-8 2,0 3,1 3,4 -1,4 -4,6 -6,4 z"
               id="path36"
               style="fill:#000000"
               inkscape:connector-curvature="0" />
            <path
               d="m 354,251 c -2,-2 -1,-6 2,-6 1,0 2,2 2,4 0,3 -2,4 -4,2 z"
               id="path38"
               style="fill:#000000"
               inkscape:connector-curvature="0" />
            <path
               d="m 380,233 c -2,-2 1,-10 3,-10 3,1 4,10 0,11 -1,0 -3,0 -3,-1 z"
               id="path40"
               style="fill:#000000"
               inkscape:connector-curvature="0" />
            <path
               d="m 352,231 c -1,-4 0,-8 4,-8 1,0 2,2 2,5 0,6 -4,8 -6,3 z"
               id="path42"
               style="fill:#000000"
               inkscape:connector-curvature="0" />
            <path
               d="m 389,228 c 0,-4 1,-5 3,-5 2,1 3,2 3,5 0,3 -1,5 -3,5 -2,0 -3,-1 -3,-5 z"
               id="path44"
               style="fill:#000000"
               inkscape:connector-curvature="0" />
          </g>
          <g
             id="g46"
             style="fill:#000000">
            <path
               d="m 358,277 c -9,-3 -10,-4 -21,-17 -8,-12 -9,-13 -11,-37 -1,-14 0,-15 9,-7 5,5 6,7 8,18 2,18 9,24 31,24 17,0 24,-3 28,-12 1,-3 3,-8 3,-10 0,-9 4,-17 9,-20 3,-2 6,-3 7,-3 2,0 0,32 -3,37 -3,7 -17,23 -21,25 -6,2 -31,4 -39,2 z"
               id="path48"
               style="fill:#000000"
               inkscape:connector-curvature="0" />
            <path
               d="m 373,67 c -20,1 -22,2 -33,7 -12,6 -26,19 -32,32 -4,8 -4,11 -4,28 0,17 0,20 4,27 2,5 5,8 5,7 1,0 1,-9 1,-19 0,-18 0,-19 6,-32 7,-13 14,-22 12,-14 -2,8 -6,16 -9,24 -4,8 -5,12 -5,27 0,16 0,19 -3,20 -6,2 -8,4 -8,7 -1,7 4,12 18,18 11,4 15,7 18,11 3,5 6,8 14,10 1,1 11,1 22,1 l 20,-1 8,-8 c 5,-6 10,-10 16,-12 19,-7 26,-21 13,-24 l -7,-2 0,-12 c 0,-12 1,-17 4,-17 1,0 1,5 1,11 0,13 2,14 8,6 5,-7 6,-38 2,-52 -5,-18 -21,-34 -41,-40 -7,-3 -13,-3 -30,-3 z m 2,101 c 2,0 7,20 7,27 0,4 0,4 -4,1 -4,-2 -5,-2 -9,0 -5,4 -6,3 -5,0 1,-2 1,-6 2,-9 2,-8 7,-19 9,-19 z"
               id="path50"
               style="fill:#000000"
               inkscape:connector-curvature="0" />
          </g>
        </g>
        <g
           id="g52">
          <g
             transform="translate(0.3610352,0)"
             id="g54">
            <g
               transform="matrix(1.06193,0,0,1.06193,-21.967835,-22.979385)"
               id="g56">
              <path
                 d="m 332.53,149.92 c 12.08,0 33.66,-0.11 37.16,-0.11 0,0.26 -0.01,0.34 -0.01,0.6 -2.44,0 -14.1,0 -19.43,0 7.84,1.61 10.66,4.73 12.38,8.8 0.69,-3.31 3.22,-4.45 7.06,-4.45 0,0.34 -0.02,0.18 -0.02,0.76 -1.72,-0.05 -4.99,0.1 -6.49,4.79 0.12,1.84 -0.29,4.02 -1.11,6.06 -5.58,13.96 -21.22,27.64 -33.88,27.64 -11.51,0 -21.07,-9.11 -21.07,-24.22 0,-17.23 12.96,-19.87 25.41,-19.87 z"
                 id="path58"
                 style="fill:#000000;stroke:#ffffff;stroke-width:2.89586663;stroke-miterlimit:4;stroke-dasharray:none"
                 inkscape:connector-curvature="0" />
            </g>
            <g
               transform="matrix(-1.06193,0,0,1.06193,763.46257,-22.977952)"
               id="g60">
              <path
                 d="m 332.53,149.92 c 12.08,0 33.66,-0.11 37.16,-0.11 0,0.26 -0.01,0.34 -0.01,0.6 -2.44,0 -14.1,0 -19.43,0 7.84,1.61 10.66,4.73 12.38,8.8 0.69,-3.31 3.22,-4.45 7.06,-4.45 0,0.34 -0.02,0.18 -0.02,0.76 -1.72,-0.05 -4.99,0.1 -6.49,4.79 0.12,1.84 -0.29,4.02 -1.11,6.06 -5.58,13.96 -21.22,27.64 -33.88,27.64 -11.51,0 -21.07,-9.11 -21.07,-24.22 0,-17.23 12.96,-19.87 25.41,-19.87 z"
                 id="path62"
                 style="fill:#000000;stroke:#ffffff;stroke-width:2.89586663;stroke-miterlimit:4;stroke-dasharray:none"
                 inkscape:connector-curvature="0" />
            </g>
          </g>
          <path
             d="m 318.84575,142.86601 c -2.39657,-1.01756 -9.95664,7.03077 -9.48446,15.93495 0.43414,8.21641 3.11455,1.02571 3.36869,-1.98954 0.76265,-8.77726 9.05366,-12.70281 6.11577,-13.94541 z"
             id="path64"
             style="fill:#ffffff"
             inkscape:connector-curvature="0" />
        </g>
      </g>
      <g
         transform="matrix(2.5189799,0,0,2.5189799,1948.6592,-3093.3133)"
         id="g66">
        <g
           transform="translate(173.28625,210.66576)"
           id="g68">
          <g
             id="text70"
             style="font-size:66.45357513px;text-align:start;line-height:100%;letter-spacing:0px;word-spacing:0px;text-anchor:start;fill:#000000;font-family:Sans"
             transform="translate(4.7638332,0)">
            <path
               d="m -1484.3781,1256.3224 c -1e-4,-1.4176 -0.1773,-2.7644 -0.5317,-4.0404 -0.1418,-0.1417 -0.2481,-0.248 -0.3189,-0.319 -1e-4,-0.071 -0.071,-0.1417 -0.2127,-0.2126 l 0.638,-1.0633 c -0.1419,-0.7796 -0.3545,-1.5948 -0.638,-2.4455 -0.2127,-0.9214 -0.319,-1.772 -0.319,-2.5518 0,-2.6935 -0.7798,-5.4225 -2.3391,-8.1871 -1.4887,-2.7644 -3.438,-5.2807 -5.8479,-7.5491 -2.4102,-2.3391 -5.0683,-4.2884 -7.9745,-5.8479 -2.8354,-1.5594 -5.5644,-2.5163 -8.1871,-2.8708 l -0.5316,-0.4253 c -1.1342,10e-5 -2.3038,-0.1771 -3.5087,-0.5316 -1.1342,-0.4253 -2.2329,-0.6379 -3.2961,-0.638 l -9.5693,0 c -0.9925,10e-5 -2.0203,0.1773 -3.0835,0.5316 -0.9924,0.2837 -1.9848,0.4254 -2.9771,0.4253 -0.3545,10e-5 -1.0987,0.036 -2.2328,0.1064 -1.0633,1e-4 -2.3392,0.036 -3.8278,0.1063 -1.4886,10e-5 -3.0834,0.035 -4.7846,0.1063 -1.6304,10e-5 -3.1544,0.035 -4.572,0.1063 -1.3468,10e-5 -2.5164,0.036 -3.5088,0.1064 -0.9215,0.071 -1.4177,0.1064 -1.4885,0.1063 -0.9215,-0.1417 -1.9139,-0.3189 -2.9772,-0.5316 -0.9923,-0.2835 -1.9138,-0.4253 -2.7644,-0.4253 -0.5671,0 -1.1696,-0.1417 -1.8076,-0.4253 -0.567,-0.2835 -1.1341,-0.4253 -1.7012,-0.4253 -0.2835,0 -0.6379,0.035 -1.0632,0.1063 -0.4253,0.071 -0.8506,0.1773 -1.2759,0.319 -0.4254,0.1418 -0.7798,0.3545 -1.0633,0.6379 -0.2835,0.2128 -0.4253,0.4963 -0.4253,0.8506 0,1.2051 0.4607,2.0557 1.3822,2.5518 0.9924,0.4254 1.9848,0.5672 2.9771,0.4253 l 0.319,0.4253 c 1.5595,-0.2125 2.6582,-0.035 3.2961,0.5317 0.7088,0.4962 1.1696,1.1696 1.3823,2.0202 0.2835,0.7798 0.4607,1.6304 0.5316,2.5518 0.1417,0.9215 0.4962,1.7013 1.0632,2.3391 -0.2126,0.4963 -0.3898,1.595 -0.5316,3.2961 -0.1418,1.6304 -0.2481,3.4025 -0.319,5.3163 -0.071,1.914 -0.1417,3.7569 -0.2126,5.529 0,1.7721 0,3.0126 0,3.7214 0,0.8506 0,1.7012 0,2.5518 0.071,0.8506 0.2481,1.7012 0.5316,2.5518 l 0.9569,1.0633 c -0.4253,0.4962 -0.6734,1.0987 -0.7442,1.8075 -0.071,0.7089 -0.1064,1.4532 -0.1064,2.2328 0,0.7798 -0.035,1.595 -0.1063,2.4455 0,0.7798 -0.1063,1.4886 -0.319,2.1265 0.071,0.2127 0.1064,0.8152 0.1064,1.8076 0.071,0.9215 0.1063,1.9493 0.1063,3.0834 0,1.1342 -0.035,2.2329 -0.1063,3.2961 0,0.9924 0,1.7013 0,2.1265 0.1417,0.3545 0.4961,0.8152 1.0632,1.3823 0,0 0,0.1063 0,0.3189 0.071,0.1418 0.035,0.1773 -0.1063,0.1064 l -0.9569,1.2759 c -0.071,0.9215 -0.1418,1.843 -0.2127,2.7644 -0.071,0.9216 -0.1772,1.843 -0.319,2.7645 -0.1417,0.2836 -0.2126,0.6025 -0.2126,0.9569 0,0.2836 0,0.6026 0,0.957 0,1.0633 0.035,2.0556 0.1063,2.9771 0.071,0.9215 0.071,1.8075 0,2.6581 -0.071,0.8507 -0.2127,1.7367 -0.4253,2.6582 -0.2127,0.8506 -0.5671,1.8075 -1.0633,2.8708 -0.3544,0.1418 -0.7442,0.3898 -1.1695,0.7443 -0.4253,0.2835 -0.8152,0.4253 -1.1696,0.4253 l -0.5316,-0.1064 -1.0633,0.319 -0.2127,0.319 c -0.567,0.1418 -1.1341,0.2481 -1.7012,0.319 -0.4962,0.071 -0.9923,0.2126 -1.4885,0.4253 -0.4962,0.2126 -0.8861,0.5316 -1.1696,0.9569 -0.2835,0.4253 -0.4253,1.0633 -0.4253,1.9139 0,0.8506 0.1418,1.5594 0.4253,2.1265 l 1.7012,0 c 0.7797,-0.4253 1.7721,-0.7797 2.9771,-1.0633 1.2759,-0.3544 2.5873,-0.6379 3.9341,-0.8506 1.3468,-0.2835 2.6581,-0.4962 3.934,-0.6379 1.3468,-0.1418 2.4809,-0.2127 3.4024,-0.2127 l 0.638,0.7443 c 0.1418,-0.1418 0.2481,-0.2835 0.319,-0.4253 0.1417,-0.1418 0.2835,-0.2127 0.4253,-0.2127 l 0.7443,0.4253 c 1.2759,-0.1417 2.5518,-0.1417 3.8277,0 1.2759,0.1418 2.5518,0.319 3.8277,0.5317 1.2759,0.2126 2.5518,0.4253 3.8277,0.6379 1.2759,0.1418 2.5518,0.1772 3.8278,0.1063 2.4809,-0.071 4.5365,-0.1417 6.1669,-0.2126 1.6302,-0.1418 3.0479,-0.2835 4.253,-0.4253 1.2758,-0.1418 2.3745,-0.319 3.2961,-0.5316 0.9923,-0.2127 2.0201,-0.4608 3.0834,-0.7443 1.0632,-0.3544 2.3037,-0.7443 3.7214,-1.1696 1.4176,-0.4962 3.1543,-1.0633 5.21,-1.7012 l 0.5316,-0.5316 0.1063,-0.638 -0.1063,0.5316 0.1063,0.1064 c 0.071,0 0.071,-0.071 0,-0.2127 0,-0.1418 0,-0.2481 0,-0.319 l 0.957,0.4253 c 0.3543,-0.8506 1.3467,-1.7366 2.9771,-2.6581 1.6303,-0.9215 3.5087,-2.41 5.6353,-4.4657 2.1973,-2.1265 4.3947,-5.0327 6.5922,-8.7187 2.2682,-3.6859 4.2175,-8.7187 5.8479,-15.0982 l -0.4253,-0.7443 1.0632,-3.6151 -1.0632,-2.6581 0.9569,-1.276 c 0.071,-0.3543 0.1417,-0.7087 0.2126,-1.0632 0.071,-0.4253 0.1063,-0.8506 0.1064,-1.2759 m -12.3338,0.4253 c -0.7089,2.5518 -1.0633,5.1745 -1.0633,7.8681 0,0.7089 0.035,1.2405 0.1064,1.5949 l 0.5316,0.2126 c -0.3545,0.638 -0.7089,1.4177 -1.0633,2.3392 -0.3545,0.8506 -0.6734,1.7721 -0.9569,2.7645 -0.2836,0.9215 -0.5671,1.843 -0.8506,2.7644 -0.2836,0.9215 -0.5317,1.7367 -0.7443,2.4455 l 0.7443,1.1696 c -1.3469,1.4177 -2.5519,3.048 -3.6151,4.891 -1.0633,1.7721 -2.162,3.5442 -3.2961,5.3163 -1.0633,1.7721 -2.3038,3.4024 -3.7214,4.891 -1.3468,1.4176 -3.0126,2.4455 -4.9973,3.0834 -0.2127,0.2835 -0.6734,0.5671 -1.3822,0.8506 -0.638,0.2127 -1.3469,0.4608 -2.1265,0.7443 -0.7798,0.2126 -1.5595,0.3899 -2.3392,0.5316 -0.7089,0.1418 -1.2405,0.2481 -1.5949,0.319 -0.071,0 -0.2481,0.035 -0.5316,0.1063 -0.2127,0 -0.319,0.1063 -0.319,0.319 l -0.9569,-0.4253 c -1.5595,0.3544 -2.9063,0.4253 -4.0404,0.2126 -1.0633,-0.2126 -2.3392,-0.3544 -3.8277,-0.4253 l -0.5317,-0.5316 c -0.3544,0.071 -0.7443,0.1418 -1.1695,0.2127 -0.4254,0 -0.8507,0.035 -1.2759,0.1063 l 0,-0.1063 c -0.4254,-0.1418 -0.8152,-0.319 -1.1696,-0.5317 -0.3545,-0.2126 -0.7798,-0.3189 -1.2759,-0.3189 -0.2836,0 -0.6026,0.071 -0.957,0.2126 -0.3544,0.071 -0.7088,0.1418 -1.0632,0.2127 -10e-5,0 -0.071,0.035 -0.2127,0.1063 -0.071,0 -0.1063,-0.035 -0.1063,-0.1063 -0.4962,-0.1418 -0.9924,-0.3545 -1.4886,-0.638 -0.2835,0 -0.4962,-0.1772 -0.6379,-0.5316 -0.071,-0.3544 -0.1418,-0.638 -0.2127,-0.8506 -0.3544,-0.9215 -0.638,-2.162 -0.8506,-3.7214 -0.1418,-1.6303 -0.2835,-3.3316 -0.4253,-5.1037 -0.1418,-1.772 -0.2481,-3.4733 -0.319,-5.1036 0,-1.7012 0,-3.0834 0,-4.1467 0,-1.205 0.1063,-2.41 0.319,-3.6151 0.2835,-1.205 0.4253,-2.4454 0.4253,-3.7214 0,-0.567 -0.035,-1.0632 -0.1063,-1.4885 0,-0.4253 -0.1418,-0.9215 -0.4253,-1.4886 0.1417,-0.9923 0.3189,-1.9493 0.5316,-2.8708 0.2126,-0.9923 0.319,-1.9847 0.319,-2.9771 0,-0.3544 -0.1064,-0.7088 -0.319,-1.0633 -0.1418,-0.3543 -0.319,-0.6733 -0.5316,-0.9569 0.3544,-2.6935 0.7088,-5.3517 1.0633,-7.9744 0.3543,-2.6936 0.5316,-5.3871 0.5316,-8.0808 l -1.1696,-2.7645 c 0.4253,-2.3391 0.7797,-4.6782 1.0633,-7.0174 0.2835,-2.3391 0.6733,-4.6429 1.1695,-6.9112 2.2683,-0.6379 4.5366,-1.0632 6.8049,-1.2759 2.2682,-0.2126 4.5365,-0.3189 6.8048,-0.319 1.205,10e-5 2.4455,0.1773 3.7214,0.5316 1.2759,0.3545 2.5164,0.5317 3.7214,0.5317 0.2126,0 0.4607,-0.071 0.7443,-0.2127 l 1.4886,0.5316 0.7442,0.638 c 2.2683,0.5671 4.3948,1.5241 6.3796,2.8708 2.0556,1.276 4.2175,2.3038 6.4859,3.0834 l -0.319,0.957 c 0.071,0.2127 0.2835,0.6734 0.6379,1.3822 0.4253,0.7089 0.9215,1.5595 1.4886,2.5518 0.567,0.9924 1.1695,2.0557 1.8075,3.1898 0.6379,1.0633 1.205,2.0911 1.7012,3.0834 0.567,0.9216 1.0278,1.7013 1.3823,2.3392 0.3543,0.5671 0.567,0.8861 0.6379,0.9569 0.071,0.2127 -0.035,0.7089 -0.3189,1.4886 -0.2836,0.7089 -0.4609,1.2051 -0.5317,1.4885 0.2126,1.0634 0.4253,2.1266 0.638,3.1898 0.2834,1.0633 0.567,2.1266 0.8506,3.1898"
               id="path3110"
               style="font-size:106.32571411px;font-weight:500;text-align:center;writing-mode:lr-tb;text-anchor:middle;font-family:Windlass;-inkscape-font-specification:Windlass Medium"
               inkscape:connector-curvature="0" />
          </g>
          <g
             id="text74"
             style="font-size:66.45357513px;text-align:start;line-height:100%;letter-spacing:0px;word-spacing:0px;text-anchor:start;fill:#000000;font-family:Sans">
            <path
               d="m -1414.9015,1292.2611 c -0.4254,-0.071 -1.1343,-0.2126 -2.1266,-0.4253 -0.9215,-0.2835 -1.843,-0.6025 -2.7644,-0.9569 -0.9216,-0.4253 -1.7368,-0.8506 -2.4455,-1.2759 -0.7089,-0.4253 -1.0633,-0.8506 -1.0633,-1.2759 -1.1342,-1.4177 -2.4455,-3.5088 -3.934,-6.2733 -1.4178,-2.8353 -2.9063,-5.9896 -4.4657,-9.463 -1.4886,-3.5441 -2.9772,-7.2655 -4.4657,-11.1642 -1.4886,-3.8985 -2.8354,-7.6554 -4.0404,-11.2705 -1.205,-3.615 -2.162,-6.9111 -2.8708,-9.8883 -0.7088,-2.977 -1.0633,-5.3162 -1.0632,-7.0175 -10e-5,-0.3543 0.3898,-0.7796 1.1696,-1.2759 0.7796,-0.4961 1.1695,-1.0632 1.1695,-1.7012 0,-0.567 -0.2481,-1.0277 -0.7442,-1.3822 -0.4254,-0.3544 -0.9216,-0.5316 -1.4886,-0.5317 -1.7012,10e-5 -3.4025,0.071 -5.1036,0.2127 -1.7013,0.071 -3.4379,0.1064 -5.21,0.1063 -0.4253,10e-5 -0.7797,0.1064 -1.0632,0.319 -0.2836,0.2127 -0.5671,0.3191 -0.8507,0.319 -1.6303,10e-5 -3.2606,-0.2126 -4.8909,-0.638 -1.6304,-0.4252 -3.2607,-0.6379 -4.891,-0.6379 -0.5671,0 -1.1342,0.2481 -1.7012,0.7443 -0.4962,0.4253 -0.7443,0.9215 -0.7443,1.4885 0,1.0633 0.567,1.7013 1.7012,1.9139 1.205,0.1418 2.5164,0.319 3.9341,0.5316 1.4176,0.1418 2.6935,0.4963 3.8277,1.0633 1.205,0.5671 1.8075,1.8076 1.8075,3.7214 0,0.4962 -0.2481,1.3823 -0.7443,2.6581 -0.4253,1.276 -1.0278,2.7291 -1.8075,4.3594 -0.7089,1.6303 -1.524,3.4024 -2.4455,5.3162 -0.8506,1.8431 -1.7012,3.5797 -2.5518,5.21 -0.8506,1.6304 -1.6658,3.0835 -2.4455,4.3594 -0.7089,1.2759 -1.2759,2.162 -1.7012,2.6581 0.1417,0.5671 0.2126,1.0279 0.2126,1.3822 0,0.3545 0,0.7798 0,1.2759 l 0.5317,0.319 0.4253,0.1063 -0.4253,-0.1063 c -0.7798,10e-5 -1.5241,0.638 -2.2329,1.9139 -0.7088,1.205 -1.3822,2.6227 -2.0202,4.253 -0.567,1.6304 -1.0632,3.2253 -1.4885,4.7847 -0.4253,1.5594 -0.7443,2.6581 -0.957,3.2961 -0.9923,3.1189 -2.5518,5.7416 -4.6783,7.8681 -2.1265,2.1265 -4.6783,4.2176 -7.6554,6.2732 l 0.5316,1.4885 c 0.3544,0.071 0.6734,0.1773 0.9569,0.319 0.2836,0.071 0.5671,0.1064 0.8506,0.1063 0.9924,10e-5 1.9493,-0.1417 2.8708,-0.4253 0.9215,-0.3544 1.8784,-0.6025 2.8708,-0.7442 l 0.8506,0.6379 c 0.7089,-0.3544 1.7012,-0.6025 2.9771,-0.7443 1.2759,-0.1417 2.3038,-0.2126 3.0835,-0.2126 0.9923,0 1.9847,0.1063 2.9771,0.319 0.9924,0.2126 1.9847,0.319 2.9771,0.3189 0.7797,10e-5 1.4886,-0.035 2.1265,-0.1063 0.638,-0.1417 1.2405,-0.567 1.8076,-1.2759 -0.1418,-0.8506 -0.4962,-1.4531 -1.0633,-1.8075 -0.5671,-0.3544 -1.2405,-0.638 -2.0202,-0.8506 -0.4253,-0.1418 -0.886,-0.2481 -1.3822,-0.319 -0.4962,-0.1418 -0.9924,-0.319 -1.4886,-0.5316 -0.4962,-0.2127 -0.9215,-0.4608 -1.2759,-0.7443 -0.2835,-0.3544 -0.4253,-0.8152 -0.4253,-1.3823 0,-0.7797 0.2127,-1.7366 0.638,-2.8707 0.4962,-1.2051 0.9215,-2.1974 1.2759,-2.9772 0.2126,-0.4252 0.3544,-0.886 0.4253,-1.3822 0.1417,-0.4962 0.2835,-1.0278 0.4253,-1.5949 0.1417,-0.7088 0.2835,-1.4176 0.4253,-2.1265 0.2126,-0.7088 0.4962,-1.3468 0.8506,-1.9139 0.3544,-0.6379 0.8152,-1.1341 1.3822,-1.4885 0.5671,-0.4253 1.3114,-0.6379 2.2329,-0.638 1.0632,10e-5 2.091,-0.1417 3.0834,-0.4253 0.9924,-0.2835 1.9847,-0.4253 2.9771,-0.4253 0.2127,0 0.4608,0.1773 0.7443,0.5316 0.2835,0.3545 0.6025,0.5317 0.957,0.5317 0.3543,0 0.6024,-0.071 0.7442,-0.2127 0.2127,-0.1417 0.4253,-0.2835 0.638,-0.4253 0.1417,-0.1417 0.3189,-0.248 0.5316,-0.319 0.2126,-0.071 0.5316,-0.1063 0.957,-0.1063 0.3543,0 1.0632,0 2.1265,0 1.0632,-0.071 2.1619,-0.071 3.2961,0 0.9923,0.1418 1.8783,0.2836 2.6581,0.4253 0.8506,0.071 1.2759,0.3545 1.2759,0.8506 0,0.7089 -0.2127,1.4177 -0.6379,2.1265 1.2049,2.481 2.1619,4.9974 2.8708,7.5492 0.7796,2.4809 1.5948,4.9618 2.4454,7.4428 -0.4962,0.4253 -1.1696,0.7443 -2.0201,0.9569 -0.7798,0.1418 -1.595,0.319 -2.4455,0.5316 -0.7798,0.2127 -1.4532,0.5317 -2.0202,0.957 -0.4962,0.3544 -0.7443,0.9215 -0.7443,1.7012 0.3544,0.3544 0.6734,0.6379 0.9569,0.8506 0.3544,0.2126 0.7797,0.319 1.2759,0.3189 2.1974,10e-5 4.4302,-0.248 6.6986,-0.7442 2.2682,-0.4962 4.5365,-0.7443 6.8048,-0.7443 1.9138,0 3.8631,0.2126 5.8479,0.6379 1.9847,0.4254 3.8986,0.638 5.7416,0.638 0.7797,0 1.3822,-0.2835 1.8075,-0.8506 0.4253,-0.5671 0.7088,-1.2405 0.8507,-2.0202 m -32.1104,-26.9004 c -0.3545,0.1418 -0.9215,0.2127 -1.7012,0.2126 -1.3469,10e-5 -2.6228,0.2127 -3.8278,0.638 -1.1341,0.4253 -2.3391,0.638 -3.615,0.638 -0.5671,0 -1.4886,-0.1063 -2.7645,-0.319 -1.205,-0.2126 -2.162,-0.3898 -2.8708,-0.5316 -0.1418,-0.2835 -0.2127,-0.5671 -0.2126,-0.8507 -10e-5,-0.6379 0.3189,-1.4885 0.9569,-2.5518 0.7088,-1.0632 1.4885,-2.2682 2.3392,-3.615 0.8505,-1.3468 1.6303,-2.729 2.3391,-4.1467 0.7088,-1.4177 1.0987,-2.8353 1.1696,-4.2531 0.071,-0.7796 0.4607,-1.6303 1.1696,-2.5518 1.4176,2.8354 2.6935,5.7062 3.8277,8.6124 1.1341,2.8354 2.1974,5.7416 3.1898,8.7187"
               id="path3113"
               style="font-size:106.32571411px;font-weight:500;text-align:center;writing-mode:lr-tb;text-anchor:middle;font-family:Windlass;-inkscape-font-specification:Windlass Medium"
               inkscape:connector-curvature="0" />
          </g>
          <g
             id="text78"
             style="font-size:66.45357513px;text-align:start;line-height:100%;letter-spacing:0px;word-spacing:0px;text-anchor:start;fill:#000000;font-family:Sans"
             transform="translate(-3.969861,0)">
            <path
               d="m -1360.929,1230.0516 0,-0.7442 -0.319,-0.638 -1.2759,-0.8506 c -2.1266,0.2836 -4.2176,0.5671 -6.2732,0.8506 -2.0557,0.2127 -4.1113,0.4254 -6.1669,0.638 l -0.7443,-0.4253 c -1.5595,0.1418 -3.1189,0.1418 -4.6783,0 -1.4886,-0.1417 -2.9772,-0.2481 -4.4657,-0.319 -0.4962,10e-5 -0.8506,0.1773 -1.0632,0.5316 -0.1419,0.2836 -0.3545,0.5672 -0.638,0.8506 l 0,1.3823 c 0.8506,0.638 1.7012,1.1342 2.5518,1.4885 0.9215,0.3545 1.8075,0.7798 2.6582,1.2759 0.2126,0.2127 0.3898,0.3191 0.5316,0.319 0.1417,0.071 0.3544,0.1418 0.6379,0.2126 0.2835,1e-4 0.4253,1e-4 0.4253,0 0.2126,0.4963 0.1418,1.276 -0.2126,2.3392 -0.3545,1.0633 -0.8861,2.3038 -1.5949,3.7214 -0.7089,1.3469 -1.5949,2.8354 -2.6581,4.4657 -0.9925,1.5595 -2.0557,3.0835 -3.1898,4.572 -1.0633,1.4177 -2.162,2.7645 -3.2961,4.0404 -1.0633,1.2759 -2.0202,2.3037 -2.8708,3.0834 -3.1189,-3.6859 -5.9543,-7.4782 -8.5061,-11.3768 -2.4809,-3.9695 -4.9973,-7.9744 -7.5491,-12.0148 0.071,-0.071 0.1063,-0.2481 0.1063,-0.5317 0.4962,0.071 0.957,0.1773 1.3823,0.319 0.4961,0.071 0.9923,0.071 1.4885,0 0.4962,-0.2126 0.8152,-0.4252 0.957,-0.6379 0.1417,-0.2835 0.2835,-0.5316 0.4253,-0.7443 l 0.1063,-0.319 c 0.1417,-0.2126 0.2835,-0.3543 0.4253,-0.4253 0.2126,-0.071 0.4253,-0.1771 0.638,-0.319 -0.5671,-0.567 -1.0633,-0.9923 -1.4886,-1.2759 -0.3544,-0.3543 -0.7797,-0.6024 -1.2759,-0.7443 l -1.4886,0.319 -0.5316,-0.2126 c -1.0633,0.1418 -2.1974,0.3899 -3.4024,0.7442 -1.1342,0.3545 -2.1974,0.5317 -3.1898,0.5317 l -4.253,0 c -0.9924,-0.3544 -2.1974,-0.6025 -3.6151,-0.7443 -1.4177,-0.2126 -2.6936,-0.3189 -3.8277,-0.319 -0.3544,10e-5 -0.7089,0.2482 -1.0633,0.7443 -0.3544,0.4254 -0.6025,0.8152 -0.7443,1.1696 0,0.638 0.2127,1.1342 0.638,1.4885 0.4253,0.3545 0.9215,0.6381 1.4886,0.8506 0.567,0.1419 1.1341,0.3191 1.7012,0.5317 0.567,0.1418 0.9923,0.3899 1.2759,0.7442 0.8506,0.6381 1.7012,1.276 2.5518,1.9139 0.9215,0.638 1.7366,1.3469 2.4455,2.1265 0.6379,0.7089 1.0987,1.5595 1.3822,2.5518 0.2835,0.9216 0.7797,1.7722 1.4886,2.5519 0.9923,1.205 2.1974,2.7645 3.6151,4.6783 1.4176,1.843 2.7998,3.7923 4.1467,5.8479 1.4176,2.0557 2.6935,4.0759 3.8277,6.0606 1.1341,1.9848 1.9493,3.6505 2.4455,4.9973 0.1417,0.3544 0.3544,0.6734 0.6379,0.9569 0.2835,0.2127 0.5671,0.4608 0.8506,0.7443 l 0.2127,0.319 c -0.2836,0.4253 -0.4608,0.886 -0.5316,1.3822 l -0.4253,0.8506 c 0.2126,0.9924 0.4607,1.9493 0.7442,2.8708 0.2835,0.9215 0.4253,1.8785 0.4253,2.8708 0,2.1974 -0.1063,4.5366 -0.3189,7.0175 -0.2127,2.4101 -0.5671,4.6429 -1.0633,6.6985 -0.3544,1.2051 -1.0278,2.0202 -2.0202,2.4455 -0.9215,0.3544 -1.8784,0.7089 -2.8708,1.0633 -0.7088,0.2835 -1.0633,0.6379 -1.0632,1.0632 -10e-5,0.1418 0.035,0.319 0.1063,0.5316 0.071,0.2127 0.1417,0.3899 0.2126,0.5317 0.4253,0.071 0.7797,0.1418 1.0633,0.2126 0.3544,0.071 0.6734,0.2127 0.9569,0.4253 0.2127,-0.071 0.6734,-0.2126 1.3823,-0.4253 0.7088,-0.2126 1.1341,-0.3189 1.2759,-0.3189 0.3544,0 0.6733,0 0.9569,0 0.3544,0 0.7443,0.071 1.1696,0.2126 l 0.5316,-0.5316 c 2.5518,-0.071 4.9973,0.071 7.3365,0.4253 2.41,0.3544 4.9618,0.5316 7.6554,0.5316 0.071,-0.2835 0.1418,-0.5316 0.2127,-0.7443 0.071,-0.2835 0.1063,-0.6025 0.1063,-0.9569 l 0,-0.2127 c 0,-0.6379 -0.2127,-1.0278 -0.6379,-1.1695 -1.8431,-0.3544 -3.119,-0.8861 -3.8278,-1.5949 -0.638,-0.7797 -0.9569,-2.162 -0.9569,-4.1467 0,-0.2127 0,-0.4253 0,-0.638 0.071,-0.2835 0.1417,-0.6379 0.2127,-1.0632 l -1.276,-0.1064 1.276,-2.3391 c -0.1419,-0.3544 -0.3545,-0.8152 -0.638,-1.3823 -0.2127,-0.567 -0.319,-1.0632 -0.319,-1.4885 0,-0.9924 0.1418,-1.9493 0.4253,-2.8708 0.3544,-0.9215 0.5316,-1.8784 0.5317,-2.8708 -10e-5,-1.843 -0.071,-3.6859 -0.2127,-5.529 -0.071,-1.8429 -0.1418,-3.6859 -0.2126,-5.5289 0.6379,-0.7797 1.3467,-1.7366 2.1265,-2.8708 0.8505,-1.205 1.772,-2.5163 2.7644,-3.934 0.9924,-1.4885 2.0202,-3.048 3.0835,-4.6784 1.1341,-1.6302 2.2682,-3.2606 3.4024,-4.8909 2.2682,-3.3315 4.4656,-6.2023 6.5922,-8.6124 2.1265,-2.4809 3.8985,-3.8631 5.3163,-4.1467 0.2126,-0.071 0.6379,-0.2481 1.2759,-0.5317 0.6379,-0.2834 1.2758,-0.6024 1.9139,-0.9569 0.7087,-0.4252 1.3112,-0.8151 1.8075,-1.1696 0.567,-0.3543 0.8505,-0.6024 0.8506,-0.7443"
               id="path3116"
               style="font-size:106.32571411px;font-weight:500;text-align:center;writing-mode:lr-tb;text-anchor:middle;font-family:Windlass;-inkscape-font-specification:Windlass Medium"
               inkscape:connector-curvature="0" />
          </g>
          <g
             id="text82"
             style="font-size:66.45357513px;text-align:start;line-height:100%;letter-spacing:0px;word-spacing:0px;text-anchor:start;fill:#000000;font-family:Sans"
             transform="translate(-3.969861,0)">
            <path
               d="m -1304.1073,1281.0395 c -0.2127,-0.2835 -0.4253,-0.5316 -0.6379,-0.7442 -0.1418,-0.2836 -0.3191,-0.5317 -0.5317,-0.7443 -0.3544,-0.3544 -0.6734,-0.5671 -0.9569,-0.638 -0.2127,-0.1417 -0.5671,-0.2126 -1.0632,-0.2126 -0.5672,0.7797 -1.1697,1.7012 -1.8076,2.7644 -0.638,1.0633 -1.3468,2.0557 -2.1265,2.9772 -0.7089,0.9215 -1.524,1.6657 -2.4455,2.2328 -0.9215,0.4962 -1.9848,0.638 -3.1898,0.4253 -0.3544,-0.1418 -0.8506,-0.2835 -1.4885,-0.4253 -0.5671,-0.1418 -1.0279,-0.2126 -1.3823,-0.2127 l -13.1843,0 c -0.7798,10e-5 -1.3469,-0.035 -1.7013,-0.1063 -0.3544,-0.1417 -0.6734,-0.2835 -0.9569,-0.4253 -0.3544,-0.2126 -0.638,-0.3544 -0.8506,-0.4253 -0.2127,-0.1417 -0.5671,-0.2126 -1.0632,-0.2126 l -0.638,0.3189 c -0.3544,-0.071 -0.6734,-0.2835 -0.9569,-0.6379 -0.071,-0.5671 -0.071,-1.1341 0,-1.7012 0.1417,-0.5671 0.2126,-1.1341 0.2126,-1.7012 0,-1.205 -0.4253,-2.1974 -1.2759,-2.9772 0.2126,-0.3544 0.3899,-0.567 0.5316,-0.6379 0.1418,-0.1418 0.4253,-0.2126 0.8506,-0.2127 l 0,-4.7846 c 0,-0.9215 0,-1.8075 0,-2.6582 0,-0.9214 -0.035,-1.8783 -0.1063,-2.8708 0,-0.2835 -0.1063,-0.6379 -0.319,-1.0632 l 1.3823,-2.6582 -1.1696,-3.0834 1.2759,-4.1467 c -0.5671,0 -0.9215,-0.2481 -1.0633,-0.7443 -0.071,-0.567 -0.1417,-1.1341 -0.2126,-1.7012 -0.1418,-0.7797 -0.2127,-1.4885 -0.2127,-2.1265 0.071,-0.6379 0.1063,-1.0632 0.1064,-1.2759 -10e-5,-1.9138 -0.1418,-3.7568 -0.4253,-5.529 -0.2127,-1.772 -0.319,-3.615 -0.319,-5.5289 0,-0.4961 0,-1.1341 0,-1.9139 0.071,-0.8505 0.2126,-1.6657 0.4253,-2.4454 0.2126,-0.8506 0.5316,-1.5594 0.9569,-2.1266 0.4253,-0.567 1.0278,-0.8505 1.8076,-0.8506 0.1417,10e-5 0.2835,0.035 0.4253,0.1064 0.1417,0 0.3544,0.035 0.6379,0.1063 l 0.4253,-0.4253 c 0.4253,10e-5 0.7797,-0.3189 1.0633,-0.957 0.1417,-0.3543 0.2126,-0.6024 0.2126,-0.7442 0,-0.1417 0.1772,-0.3189 0.5317,-0.5317 -0.7089,-0.7087 -1.3823,-1.2049 -2.0202,-1.4885 l -1.4886,0.319 -0.5316,-0.1064 c -0.7798,0.1419 -1.524,0.2482 -2.2329,0.319 -0.7088,0.071 -1.4177,0.1773 -2.1265,0.319 l -1.3822,-0.2127 c -0.1418,0.071 -0.319,0.1419 -0.5316,0.2127 -0.1418,0.071 -0.2836,0.1064 -0.4253,0.1063 -0.7798,10e-5 -1.6304,-0.035 -2.5519,-0.1063 -0.9215,-0.1417 -1.8784,-0.2835 -2.8708,-0.4253 -0.9214,-0.2126 -1.8075,-0.3544 -2.6581,-0.4253 -0.7797,-0.1417 -1.3822,-0.2126 -1.8075,-0.2127 -0.3545,10e-5 -0.7798,0.1419 -1.2759,0.4253 -0.4253,0.2128 -0.8152,0.4254 -1.1696,0.638 l 0,1.8075 c 0.4253,0.5672 0.8151,0.957 1.1696,1.1696 0.4253,0.1418 0.8151,0.2482 1.1695,0.319 0.4253,10e-5 0.8506,0.036 1.276,0.1063 0.4252,10e-5 0.8506,0.1064 1.2759,0.319 0.2835,0.9924 0.4253,1.9848 0.4253,2.9771 0.071,0.9924 0.1772,1.9848 0.3189,2.9771 0.3545,0.2836 0.5317,0.638 0.5317,1.0633 0,0.3545 0,0.7089 0,1.0632 0,2.2684 0.071,4.5367 0.2126,6.8049 0.1418,2.2683 0.2127,4.5366 0.2127,6.8048 0,1.4178 -0.2127,2.8709 -0.638,4.3594 -0.4253,1.4177 -0.6379,2.8354 -0.6379,4.253 0,0.2127 0.035,0.4254 0.1063,0.638 0.1417,0.2127 0.2835,0.3899 0.4253,0.5316 l 0.319,0.2126 c 0.2835,0.4254 0.4253,0.7089 0.4253,0.8507 0,1.7012 -0.1064,3.5796 -0.319,5.6352 -0.1418,2.0557 -0.3899,4.1113 -0.7443,6.1669 -0.2835,2.0557 -0.6025,4.1113 -0.9569,6.1669 -0.3544,2.0556 -0.7089,3.9341 -1.0633,5.6353 -0.071,0.3544 -0.6734,0.7797 -1.8075,1.2759 -0.4962,0.1418 -0.9924,0.319 -1.4886,0.5316 -0.4962,0.1418 -0.9923,0.3544 -1.4885,0.638 0,0.4962 0,0.9569 0,1.3822 0.071,0.3544 0.2481,0.7797 0.5316,1.2759 0.3544,0 0.6734,0.071 0.9569,0.2126 0.3544,0.071 0.7089,0.1064 1.0633,0.1064 1.2759,0 2.6581,-0.1063 4.1467,-0.319 2.1974,-0.3544 4.4657,-0.7797 6.8048,-1.2759 2.3392,-0.4962 4.6075,-0.7443 6.8049,-0.7443 1.5594,0 3.2252,0.035 4.9973,0.1063 1.8429,0.071 3.6505,0.2127 5.4226,0.4253 1.8429,0.1418 3.6505,0.319 5.4226,0.5317 1.7721,0.1417 3.4024,0.319 4.891,0.5316 1.4885,0.2127 2.7999,0.638 3.934,1.2759 1.1341,0.638 2.0911,1.3468 2.8708,2.1265 0.3544,0.3544 0.6734,0.7089 0.957,1.0633 0.3543,0.3544 0.6733,0.6734 0.9569,0.9569 0.6379,0.638 1.1695,0.9569 1.5949,0.9569 0.4252,0 0.8505,-0.3189 1.2759,-0.9569 0.4252,-0.7088 0.7088,-1.2405 0.8506,-1.5949 -10e-5,-0.2126 -0.035,-0.3898 -0.1063,-0.5316 l -0.2127,-0.5316 c -0.4253,-1.2051 -0.7797,-2.4101 -1.0632,-3.6151 -0.2127,-1.2759 -0.3191,-2.5873 -0.319,-3.9341 -10e-5,-1.2759 0.071,-2.6581 0.2126,-4.1467 0.2126,-1.4885 0.7443,-2.729 1.5949,-3.7214"
               id="path3119"
               style="font-size:106.32571411px;font-weight:500;text-align:center;writing-mode:lr-tb;text-anchor:middle;font-family:Windlass;-inkscape-font-specification:Windlass Medium"
               inkscape:connector-curvature="0" />
          </g>
          <g
             id="text86"
             style="font-size:66.45357513px;text-align:start;line-height:100%;letter-spacing:0px;word-spacing:0px;text-anchor:start;fill:#000000;font-family:Sans"
             transform="translate(-6.3517776,0)">
            <path
               d="m -1275.1726,1229.6043 c -0.3545,-0.3544 -0.7089,-0.6379 -1.0633,-0.8506 -0.2836,-0.2126 -0.6025,-0.4253 -0.9569,-0.638 l -1.4886,0.4253 -0.5316,-0.2126 c -0.9924,0.1418 -2.0911,0.3899 -3.2961,0.7442 -1.2051,0.3545 -2.3038,0.5317 -3.2961,0.5317 l -4.3594,0 c -0.3544,-0.1417 -0.886,-0.2481 -1.5949,-0.319 -0.6379,-0.1417 -1.3468,-0.248 -2.1265,-0.319 -0.7088,-0.1417 -1.4176,-0.2126 -2.1265,-0.2126 -0.7088,-0.071 -1.2759,-0.1417 -1.7012,-0.2127 l -1.2759,1.3822 c 0,0.5672 0.2127,1.0279 0.638,1.3823 0.4961,0.2836 1.0278,0.5317 1.5948,0.7443 0.638,0.2127 1.2405,0.4253 1.8076,0.6379 0.567,0.1418 0.9923,0.3899 1.2759,0.7443 0.2835,0.3545 0.4962,0.9215 0.6379,1.7012 0.2127,0.7089 0.3545,1.4886 0.4253,2.3392 0.1418,0.7797 0.2127,1.5949 0.2127,2.4455 0.071,0.7797 0.1063,1.4531 0.1063,2.0201 0.1418,0.1419 0.2127,0.39 0.2127,0.7443 0,0.9216 -0.035,1.8076 -0.1064,2.6582 0,0.7797 0.2836,1.5595 0.8507,2.3391 l -0.7443,1.3823 c 0.1417,1.7721 0.2835,3.6151 0.4253,5.5289 0.1417,1.843 0.2126,3.5797 0.2126,5.21 0,1.5594 -0.1418,3.1189 -0.4253,4.6783 -0.2835,1.5595 -0.4253,3.1544 -0.4253,4.7847 0,0.9924 0.1772,1.9493 0.5316,2.8707 0.3545,0.9216 0.5317,1.8785 0.5317,2.8708 0,2.1975 -0.1064,4.4657 -0.319,6.8049 -0.1418,2.2683 -0.4962,4.4302 -1.0633,6.4859 -0.3544,1.2759 -0.9923,2.1265 -1.9138,2.5518 -0.9215,0.3544 -1.8784,0.7088 -2.8708,1.0632 -0.7089,0.2836 -1.0633,0.638 -1.0633,1.0633 0,0.1418 0.036,0.319 0.1064,0.5316 0.071,0.2127 0.1417,0.3899 0.2126,0.5316 0.4253,0.071 0.7797,0.1418 1.0633,0.2127 0.2835,0.071 0.6025,0.2127 0.9569,0.4253 0.2126,-0.071 0.6734,-0.2126 1.3822,-0.4253 0.7089,-0.2126 1.1342,-0.319 1.2759,-0.319 0.3544,0 0.6734,0 0.957,0 0.3544,0 0.7088,0.071 1.0632,0.2127 l 0.5317,-0.638 c 2.4809,0 4.8909,0.1772 7.2301,0.5316 2.41,0.3545 4.9264,0.5317 7.5491,0.5317 0.071,-0.2836 0.1418,-0.5316 0.2127,-0.7443 0.071,-0.2835 0.1063,-0.6025 0.1063,-0.9569 l 0,-0.319 c 0.1417,-0.4962 -0.071,-0.8506 -0.6379,-1.0633 -1.843,-0.4253 -3.0835,-0.9923 -3.7214,-1.7012 -0.638,-0.7797 -0.957,-2.1619 -0.957,-4.1467 l 0,-0.5316 c 0.071,-0.2127 0.1063,-0.6025 0.1063,-1.1696 l -1.1695,0 0,-0.1063 1.2759,-2.4455 c -0.1418,-0.3544 -0.3545,-0.7088 -0.638,-1.0633 -0.2127,-0.4253 -0.319,-0.8506 -0.319,-1.2759 0,-0.567 0.1772,-1.1341 0.5317,-1.7012 0.3544,-0.567 0.5316,-1.2404 0.5316,-2.0202 0,-0.9923 -0.1063,-1.9493 -0.319,-2.8708 -0.1418,-0.9214 -0.2126,-1.8784 -0.2126,-2.8708 0,-1.2758 0.035,-2.5518 0.1063,-3.8277 0.1417,-1.2759 0.2126,-2.5518 0.2126,-3.8277 0,-1.5594 -0.1063,-3.0834 -0.3189,-4.572 -0.2127,-1.5594 -0.3545,-3.1543 -0.4253,-4.7847 l 0.9569,-1.3822 c 0,-0.7088 -0.035,-1.2759 -0.1063,-1.7012 -0.071,-0.4962 -0.2836,-1.0278 -0.638,-1.5949 l 0,-7.8681 c 0,-0.4961 0,-1.205 0,-2.1265 0.071,-0.9215 0.1772,-1.8075 0.319,-2.6582 0.2126,-0.8505 0.5316,-1.5948 0.9569,-2.2328 0.4962,-0.6379 1.1696,-0.9569 2.0202,-0.9569 0.3544,0 0.7088,0.071 1.0633,0.2126 l 0.4253,-0.4253 c 0.3544,10e-5 0.567,-0.1771 0.6379,-0.5316 0.1418,-0.4253 0.2835,-0.8151 0.4253,-1.1696 0,-0.071 0,-0.1417 0,-0.2127 0.071,-0.071 0.2481,-0.1771 0.5317,-0.3189"
               id="path3122"
               style="font-size:106.32571411px;font-weight:500;text-align:center;writing-mode:lr-tb;text-anchor:middle;font-family:Windlass;-inkscape-font-specification:Windlass Medium"
               inkscape:connector-curvature="0" />
          </g>
          <g
             id="text90"
             style="font-size:66.45357513px;text-align:start;line-height:100%;letter-spacing:0px;word-spacing:0px;text-anchor:start;fill:#000000;font-family:Sans"
             transform="translate(-6.3517776,0)">
            <path
               d="m -1202.7567,1266.717 0,-0.7443 -1.1696,-0.9569 -12.2275,1.3822 -0.5316,-0.3189 c -1.6304,0.071 -3.2253,0.071 -4.7847,0 -1.5595,-0.1418 -3.1543,-0.2835 -4.7846,-0.4253 l -1.0633,1.2759 0,0.9569 c 0.567,0.4253 1.0987,0.7089 1.5949,0.8506 0.4961,0.1418 0.9569,0.2481 1.3822,0.319 0.3544,0 0.6734,0 0.957,0 0.3543,0 0.7088,0.071 1.0632,0.2126 0.4253,0.2127 0.7797,0.7798 1.0633,1.7013 0.3544,0.9215 0.567,2.8353 0.6379,5.7415 l 0.5317,0.2127 c -0.071,0.4962 -0.1418,1.1342 -0.2127,1.9139 -0.071,0.7797 -0.1064,1.5949 -0.1063,2.4454 -10e-5,0.7798 0.035,1.5595 0.1063,2.3392 0.1417,0.7089 0.3544,1.2759 0.638,1.7012 -0.1418,0.3545 -0.4254,0.7798 -0.8506,1.2759 -0.3545,0.4962 -0.7798,0.957 -1.2759,1.3823 -0.4963,0.4253 -1.0279,0.7797 -1.5949,1.0632 -0.4963,0.2836 -0.957,0.4253 -1.3823,0.4253 -0.3544,0 -0.6734,0.1064 -0.9569,0.319 -0.2836,0.1418 -0.5671,0.2127 -0.8506,0.2127 -0.4253,0 -0.6734,0.1063 -0.7443,0.3189 -0.4253,-0.071 -0.8506,-0.1772 -1.2759,-0.3189 -0.3544,-0.2127 -0.7443,-0.319 -1.1696,-0.319 -0.2835,0 -0.5316,0.071 -0.7443,0.2126 -0.2126,0.071 -0.4607,0.1064 -0.7442,0.1064 l -0.638,0.5316 c -1.205,-0.2835 -2.4101,-0.5671 -3.6151,-0.8506 -1.1341,-0.2835 -2.3037,-0.4608 -3.5087,-0.5317 l -0.7443,-0.6379 c -0.3544,0.1418 -0.7797,0.2835 -1.2759,0.4253 -0.4253,0.071 -0.8152,0.1063 -1.1696,0.1063 l -0.4253,0 c -0.2127,-0.567 -0.7443,-1.3468 -1.5949,-2.3391 -0.8506,-0.9924 -1.7721,-2.0202 -2.7644,-3.0835 -0.9924,-1.0632 -1.9494,-2.0202 -2.8708,-2.8708 -0.9215,-0.8506 -1.5595,-1.4531 -1.9139,-1.8075 l -0.9569,0.2126 0,-0.1063 0.8506,-1.0633 c -0.4253,-0.7796 -0.8861,-1.7366 -1.3823,-2.8707 -0.4253,-1.205 -0.8506,-2.4101 -1.2759,-3.6151 -0.3544,-1.205 -0.6734,-2.3746 -0.9569,-3.5088 -0.2127,-1.1341 -0.319,-2.091 -0.319,-2.8708 0,-3.1897 0.6025,-6.5212 1.8076,-9.9946 1.2759,-3.5441 2.7999,-6.7339 4.572,-9.5693 l 0,-1.1696 c 0.4961,-0.4252 1.4885,-1.1695 2.9771,-2.2328 1.4885,-1.0632 3.048,-2.1619 4.6783,-3.2961 1.6303,-1.205 3.1189,-2.2328 4.4657,-3.0835 1.3468,-0.9214 2.1265,-1.3821 2.3392,-1.3822 0.567,10e-5 1.1341,0.1064 1.7012,0.319 0.6379,0.2127 1.2759,0.319 1.9138,0.319 0.7797,0 1.524,-0.035 2.2329,-0.1064 0.7797,-0.1417 1.5594,-0.2125 2.3391,-0.2126 0.9924,10e-5 2.2328,0.2481 3.7214,0.7443 1.4886,0.4253 2.9062,0.9924 4.2531,1.7012 1.4176,0.7089 2.6226,1.5595 3.6151,2.5518 0.9923,0.9215 1.4885,1.843 1.4885,2.7645 l 0,0.6379 c 0.2126,0.4963 0.3898,0.9924 0.5316,1.4886 0.1418,0.4962 0.3898,0.957 0.7443,1.3822 -0.4253,0.4254 -0.4253,0.8507 0,1.2759 0.4961,0.4254 0.9215,0.638 1.2759,0.638 l 1.1696,0 c 0.3544,-0.2835 0.7088,-0.567 1.0633,-0.8506 0.4252,-0.3544 0.6379,-0.7797 0.6379,-1.2759 0,-1.5594 -0.2836,-3.048 -0.8506,-4.4657 -0.4962,-1.4885 -0.7443,-3.0125 -0.7443,-4.572 0,-1.3468 0.071,-2.5163 0.2127,-3.5088 0.1417,-1.0632 0.3189,-2.0555 0.5316,-2.9771 0.2835,-0.9214 0.6379,-1.8783 1.0633,-2.8708 0.4961,-0.9923 1.0632,-2.091 1.7012,-3.2961 -0.2127,-0.3543 -0.4963,-0.7087 -0.8506,-1.0632 -0.3545,-0.4253 -0.8152,-0.6379 -1.3823,-0.638 -0.7797,10e-5 -1.4531,0.4254 -2.0201,1.2759 -0.4963,0.7798 -0.9216,1.6659 -1.276,2.6582 -0.3544,0.9215 -0.7088,1.7721 -1.0632,2.5518 -0.3545,0.7798 -0.7798,1.1696 -1.2759,1.1696 -2.1975,0 -4.3949,-0.1772 -6.5922,-0.5317 -2.1266,-0.4252 -4.2531,-0.6379 -6.3796,-0.6379 -0.5671,0 -1.1696,0.071 -1.8075,0.2126 -0.5671,0.071 -1.1342,0.1773 -1.7012,0.319 -0.5671,0.1418 -1.0987,0.2836 -1.5949,0.4253 -0.4962,0.1418 -1.0278,0.2127 -1.5949,0.2127 -2.9771,0 -5.7416,0.4962 -8.2934,1.4885 -2.4809,0.9216 -4.9619,2.162 -7.4428,3.7214 -0.1418,-0.1417 -0.3899,-0.2126 -0.7443,-0.2126 -1.6303,0 -3.4024,0.7798 -5.3162,2.3391 -1.843,1.5595 -3.5797,3.438 -5.21,5.6353 -1.5595,2.1266 -2.9062,4.324 -4.0404,6.5922 -1.0632,2.1974 -1.5949,3.9341 -1.5949,5.2099 -0.2835,0.4254 -0.6025,0.7798 -0.9569,1.0633 -0.3544,0.2127 -0.6734,0.6026 -0.9569,1.1696 0.1417,0.7798 0.1417,1.524 0,2.2328 -0.071,0.638 -0.2127,1.3114 -0.4253,2.0202 -0.2127,0.7089 -0.4253,1.4177 -0.638,2.1265 -0.2126,0.7089 -0.319,1.4177 -0.319,2.1265 0,0.7798 0.1772,2.0203 0.5317,3.7214 0.4253,1.7013 0.9215,3.4734 1.4885,5.3163 0.638,1.7721 1.3114,3.4379 2.0202,4.9973 0.7797,1.5595 1.524,2.5519 2.2329,2.9772 l 0.8506,0.5316 -0.2127,0.6379 c 0,0.5671 0.1418,1.1696 0.4253,1.8076 0.3544,0.5671 0.7443,1.1696 1.1696,1.8075 0.4962,0.5671 0.9924,1.1342 1.4886,1.7012 0.4961,0.4962 0.9569,0.9215 1.3822,1.2759 l 1.0632,-0.3189 c 1.0633,0.7088 2.162,1.4176 3.2961,2.1265 1.1342,0.7088 2.3037,1.3822 3.5088,2.0202 l 0.7443,-0.638 0.8506,0 c 0.6379,0.5671 1.6303,1.1696 2.9771,1.8075 1.3468,0.5671 2.4455,0.8507 3.2961,0.8506 0.7088,10e-5 1.4176,0.035 2.1265,0.1064 0.7088,0.071 1.4531,0.1417 2.2328,0.2126 0,0 0.035,0.035 0.1064,0.1063 0.071,0.071 0.248,0.1064 0.5316,0.1064 1.7012,0 3.2252,-0.1418 4.572,-0.4253 2.2682,-0.3544 4.4302,-0.7797 6.4859,-1.2759 2.0556,-0.5671 4.2884,-0.7797 6.6985,-0.638 0.2126,-0.3544 0.567,-0.6379 1.0633,-0.8506 0.4961,-0.2126 1.0277,-0.4253 1.5948,-0.638 0.4962,-0.1417 1.0987,-0.3189 1.8076,-0.5316 0.7088,-0.2835 1.2758,-0.567 1.7012,-0.8506 0.3543,-0.2126 0.7088,-0.6379 1.0632,-1.2759 0.3544,-0.6379 0.6734,-1.3468 0.957,-2.1265 0.3543,-0.7797 0.6733,-1.524 0.9569,-2.2328 0.2835,-0.7798 0.4961,-1.3823 0.638,-1.8076 -0.1419,-0.7797 -0.2482,-1.7012 -0.319,-2.7645 -1e-4,-1.0632 0.1771,-1.8784 0.5316,-2.4454 -0.2836,-1.4886 -0.2481,-3.1898 0.1063,-5.1037 0.3544,-1.9847 0.9215,-3.6505 1.7012,-4.9973 0.2835,-0.071 0.7088,-0.1772 1.276,-0.319 0.6378,-0.1417 1.2404,-0.3189 1.8075,-0.5316 0.6379,-0.2126 1.1695,-0.4253 1.5949,-0.6379 0.4961,-0.2127 0.7442,-0.3899 0.7443,-0.5317"
               id="path3125"
               style="font-size:106.32571411px;font-weight:500;text-align:center;writing-mode:lr-tb;text-anchor:middle;font-family:Windlass;-inkscape-font-specification:Windlass Medium"
               inkscape:connector-curvature="0" />
          </g>
          <g
             id="text94"
             style="font-size:66.45357513px;text-align:start;line-height:100%;letter-spacing:0px;word-spacing:0px;text-anchor:start;fill:#000000;font-family:Sans"
             transform="translate(-9.5276664,0)">
            <path
               d="m -1129.9326,1291.5458 c -0.2836,-0.2127 -0.4608,-0.3544 -0.5316,-0.4253 -0.071,-0.071 -0.1419,-0.1418 -0.2127,-0.2127 l 0,-0.2126 -0.6379,-0.638 -3.0835,-0.319 c -0.4962,-0.567 -0.9215,-1.0278 -1.2759,-1.3822 -0.2836,-0.4253 -0.5317,-0.7797 -0.7443,-1.0633 -0.2836,-0.3544 -0.4962,-0.6733 -0.6379,-0.9569 -0.1418,-0.2835 -0.2482,-0.6025 -0.319,-0.9569 -0.1418,-0.7797 -0.2836,-1.4886 -0.4253,-2.1265 -0.071,-0.7089 -0.1773,-1.4531 -0.319,-2.2329 0.2835,-1.205 0.3544,-2.6227 0.2127,-4.253 -0.1418,-1.6303 -0.2127,-3.048 -0.2127,-4.253 0,-0.7797 0.1063,-1.524 0.319,-2.2329 0.2835,-0.7797 0.4253,-1.5594 0.4253,-2.3391 0,-2.9771 -0.2127,-5.9188 -0.6379,-8.8251 -0.4254,-2.9062 -0.6381,-5.8478 -0.638,-8.825 0.1417,-0.567 0.248,-1.3113 0.319,-2.2329 0.1417,-0.9214 0.248,-1.8429 0.319,-2.7644 -10e-5,-0.3544 0.035,-0.9923 0.1063,-1.9139 0.1417,-0.9214 0.2835,-1.5594 0.4253,-1.9139 -0.2836,-1.4884 -0.2836,-2.977 0,-4.4656 0.2835,-1.5594 0.8151,-2.9771 1.5949,-4.2531 0.2834,-0.1417 0.7442,-0.3543 1.3822,-0.6379 0.6379,-0.2835 1.2759,-0.567 1.9139,-0.8506 0.6379,-0.3544 1.1695,-0.6733 1.5949,-0.957 0.4961,-0.3543 0.7442,-0.6378 0.7442,-0.8506 l 0,-0.7442 -0.3189,-0.638 -1.2759,-0.8506 c -2.1266,0.2836 -4.2531,0.5671 -6.3796,0.8506 -2.0557,0.2127 -4.1113,0.4254 -6.1669,0.638 l -0.6379,-0.4253 c -1.5595,0.1418 -3.119,0.1418 -4.6784,0 -1.5595,-0.1417 -3.0835,-0.2481 -4.572,-0.319 -0.4962,10e-5 -0.8152,0.1773 -0.9569,0.5316 -0.1418,0.2836 -0.3899,0.5672 -0.7443,0.8506 l 0,1.3823 c 1.4176,0.9924 2.5872,1.7012 3.5088,2.1265 0.3543,0.1418 0.6733,0.2836 0.9569,0.4253 0.3544,0.1418 0.6733,0.3545 0.9569,0.6379 0.4253,0.3545 0.7088,0.957 0.8506,1.8076 0.2126,0.8506 0.319,2.5873 0.319,5.2099 l 0.4253,-0.4253 c -0.1418,1.1342 -0.2127,2.4101 -0.2126,3.8277 -10e-5,1.3469 0.2126,2.481 0.6379,3.4025 -0.3545,0.3544 -0.5671,0.7797 -0.6379,1.2759 -0.071,0.4253 -0.1064,0.8861 -0.1064,1.3822 0,0.7089 0,1.4177 0,2.1265 0.071,0.7089 0.035,1.4532 -0.1063,2.2329 -0.1418,0.071 -0.2836,0.1418 -0.4253,0.2126 -0.1418,0.071 -0.2481,0.1064 -0.319,0.1063 l -1.7012,0 -0.4253,0.319 c -0.4962,10e-5 -1.0278,0.035 -1.5949,0.1063 -0.4962,0.071 -0.9569,0.1064 -1.3822,0.1064 l -6.2732,0 -0.7443,-0.4253 -1.9139,0.3189 -0.6379,-0.3189 c -0.4962,0 -0.9215,0.071 -1.2759,0.2126 -0.3545,0.1418 -0.7443,0.319 -1.1696,0.5316 -1.6304,-0.2126 -3.2253,-0.3898 -4.7847,-0.5316 -1.5594,-0.1417 -3.1189,-0.2835 -4.6783,-0.4253 l -0.7443,-0.1063 -0.4253,0.1063 c -0.7088,-0.2835 -1.205,-0.4252 -1.4885,-0.4253 -0.1418,-0.2835 -0.319,-0.6025 -0.5317,-0.9569 -0.2126,-0.3544 -0.3544,-0.6734 -0.4253,-0.957 l 0.8506,-1.3822 c 0,-0.7088 -0.035,-1.2758 -0.1063,-1.7012 -0.071,-0.4961 -0.2835,-1.0278 -0.6379,-1.5949 l 0,-8.506 c -10e-5,-0.4253 -10e-5,-0.9923 0,-1.7013 -10e-5,-0.7796 0.071,-1.5239 0.2126,-2.2328 0.2126,-0.7088 0.4962,-1.3113 0.8506,-1.8075 0.3544,-0.4961 0.886,-0.7442 1.5949,-0.7443 0.4253,10e-5 0.8151,0.035 1.1696,0.1063 0.3544,-0.3543 0.6025,-0.6379 0.7443,-0.8506 l 0.6379,-0.7443 c 0.2126,-0.2834 0.4253,-0.5315 0.638,-0.7442 0.2126,-0.2126 0.4961,-0.3898 0.8506,-0.5317 -0.4962,-0.567 -0.957,-0.9923 -1.3823,-1.2759 -0.3544,-0.3543 -0.8152,-0.6024 -1.3822,-0.7443 l -1.3822,0.319 -0.5317,-0.2126 c -1.0632,0.1418 -2.1974,0.3899 -3.4024,0.7442 -1.205,0.3545 -2.3037,0.5317 -3.2961,0.5317 l -4.253,0 c -0.9924,-0.3544 -2.1974,-0.6025 -3.6151,-0.7443 -1.4177,-0.2126 -2.6581,-0.3189 -3.7214,-0.319 -0.3544,10e-5 -0.7443,0.2482 -1.1696,0.7443 -0.3544,0.4254 -0.6025,0.8152 -0.7442,1.1696 0,0.638 0.2126,1.1342 0.6379,1.4885 0.4253,0.3545 0.9215,0.6381 1.4886,0.8506 0.6379,0.1419 1.2404,0.3191 1.8075,0.5317 0.5671,0.1418 0.9569,0.3899 1.1696,0.7442 0.3544,0.4254 0.6379,1.0634 0.8506,1.9139 0.2126,0.7798 0.3898,1.6304 0.5316,2.5518 0.1418,0.8507 0.2481,1.7013 0.319,2.5518 0.071,0.8507 0.1063,1.595 0.1063,2.2329 0,0.638 0,1.4177 0,2.3392 0.071,0.8506 0.319,1.5595 0.7443,2.1265 -0.4253,0.5671 -0.638,1.0633 -0.6379,1.4885 -10e-5,1.7013 0.1063,3.4734 0.3189,5.3163 0.2127,1.7722 0.319,3.4734 0.319,5.1036 0,1.5595 -0.1772,3.119 -0.5316,4.6784 -0.2836,1.4886 -0.4253,3.048 -0.4253,4.6783 0,0.9924 0.1772,1.9493 0.5316,2.8708 0.4253,0.8506 0.6379,1.7721 0.638,2.7645 -10e-5,1.9847 -0.1418,3.9695 -0.4253,5.9542 -0.2127,1.9139 -0.4608,3.8278 -0.7443,5.7416 0.2835,0.9924 0.1772,1.7367 -0.319,2.2328 -0.4253,0.4962 -1.0278,0.957 -1.8075,1.3823 -0.7798,0.3544 -1.5595,0.7443 -2.3392,1.1696 -0.7797,0.3544 -1.3468,0.886 -1.7012,1.5948 l 0.2126,0.638 c 0,0.2835 0.1064,0.4608 0.319,0.5316 l 0.4253,0.319 c 0.2835,0.1418 0.4608,0.2127 0.5316,0.2127 0.2836,0.071 0.4962,0.1417 0.638,0.2126 0.2126,0 0.4253,0.071 0.638,0.2127 0.567,0 1.0632,-0.1064 1.4885,-0.319 0.4253,-0.2835 0.8152,-0.4253 1.1696,-0.4253 0.8506,0 1.7721,0.1772 2.7645,0.5316 l 0.1063,-0.8506 c 2.4809,0.1418 4.891,0.3544 7.2301,0.638 2.3392,0.2835 4.7847,0.4253 7.3365,0.4253 0.3544,-0.4962 0.7088,-0.8152 1.0633,-0.957 0.4252,-0.2126 0.6379,-0.7088 0.6379,-1.4885 l -0.2126,-1.3823 -1.0633,0.319 c -0.3544,-0.2126 -0.7088,-0.3898 -1.0632,-0.5316 -0.2836,-0.2127 -0.5671,-0.3899 -0.8506,-0.5316 -1.0633,-0.5671 -1.8785,-1.0987 -2.4455,-1.5949 -0.5671,-0.5671 -0.8507,-1.5949 -0.8506,-3.0835 -1e-4,-0.2835 -1e-4,-0.567 0,-0.8506 0.071,-0.2835 0.1063,-0.7088 0.1063,-1.2759 l -0.7443,0 c 0.2126,-0.2835 0.3898,-0.6025 0.5316,-0.9569 0.2127,-0.3544 0.319,-0.7088 0.319,-1.0633 0,-0.567 -0.1772,-1.0632 -0.5316,-1.4885 -0.2836,-0.4253 -0.4253,-0.8506 -0.4253,-1.276 0,-0.7796 0.1417,-1.5594 0.4253,-2.3391 0.3544,-0.7797 0.5316,-1.5594 0.5316,-2.3392 0,-1.8429 -0.1418,-3.6859 -0.4253,-5.5289 -0.2127,-1.843 -0.319,-3.6859 -0.319,-5.529 0,-0.567 0.4608,-0.8505 1.3823,-0.8506 0.9214,-0.071 1.5948,-0.1062 2.0201,-0.1063 l 2.2329,0.1063 c 0.7088,-0.4252 1.205,-0.8151 1.4885,-1.1695 0.4962,0.1418 0.957,0.2835 1.3823,0.4253 0.4961,0.1418 0.9569,0.2127 1.3822,0.2126 1.843,10e-5 3.7214,-0.1063 5.6353,-0.319 1.9138,-0.2126 3.7922,-0.3898 5.6352,-0.5316 l 1.5949,0.8506 3.6151,0 0.2127,-0.2126 c 0.8505,0 1.5594,0.035 2.1265,0.1063 0.567,0.071 1.2404,0.2127 2.0202,0.4253 0.1417,0.8506 0.248,1.7012 0.3189,2.5518 0.071,0.8506 0.1063,1.7013 0.1064,2.5518 -10e-5,0.8507 -10e-5,1.5241 0,2.0202 -10e-5,0.4962 0.1417,1.1696 0.4253,2.0202 -0.071,0.2836 -0.3545,0.6025 -0.8506,0.9569 l 0,12.3338 c -1e-4,0.2127 -1e-4,0.5671 0,1.0633 -1e-4,0.4962 -0.036,1.0278 -0.1064,1.5949 0,0.567 -0.035,1.0632 -0.1063,1.4885 -0.071,0.4253 -0.2127,0.6734 -0.4253,0.7443 l -0.5316,-0.1063 c -0.4963,0.071 -1.0988,0.2126 -1.8076,0.4253 -0.7088,0.1418 -1.3822,0.3898 -2.0202,0.7443 -0.638,0.2835 -1.205,0.6734 -1.7012,1.1695 -0.4253,0.4253 -0.638,0.9215 -0.6379,1.4886 l 0.5316,1.1696 0.5316,0.4253 c 0.5671,-0.071 1.1696,-0.1772 1.8076,-0.319 0.6379,-0.1418 1.2404,-0.2126 1.8075,-0.2126 1.2759,0 2.4809,-0.035 3.6151,-0.1064 1.205,-0.071 2.3037,-0.1063 3.2961,-0.1063 1.0632,-0.071 2.0556,-0.071 2.9771,0 0.9214,0 1.8429,0.1418 2.7645,0.4253 0.567,0.1418 1.3467,0.2481 2.3391,0.319 0.9923,0 1.9847,-0.071 2.9772,-0.2127 0.9923,-0.2126 1.9138,-0.5316 2.7644,-0.9569 0.8506,-0.4253 1.3822,-1.0278 1.5949,-1.8075"
               id="path3128"
               style="font-size:106.32571411px;font-weight:500;text-align:center;writing-mode:lr-tb;text-anchor:middle;font-family:Windlass;-inkscape-font-specification:Windlass Medium"
               inkscape:connector-curvature="0" />
          </g>
          <g
             id="text98"
             style="font-size:66.45357513px;text-align:start;line-height:100%;letter-spacing:0px;word-spacing:0px;text-anchor:start;fill:#000000;font-family:Sans"
             transform="translate(-10.321639,0)">
            <path
               d="m -1065.788,1223.0421 -3.2961,0 c 0.071,0.9216 -0.071,1.6658 -0.4253,2.2328 -0.3545,0.5672 -0.8507,1.0279 -1.4886,1.3823 -0.5671,0.2836 -1.2405,0.4962 -2.0202,0.6379 -0.7089,0.1419 -1.4177,0.2127 -2.1265,0.2127 -0.5671,0 -1.2051,0.2127 -1.9138,0.6379 -0.7089,0.3545 -1.3469,0.5317 -1.9139,0.5317 -0.2127,0 -0.3899,-0.035 -0.5316,-0.1064 -0.3545,-0.071 -1.1342,-0.1771 -2.3392,-0.3189 -1.2051,-0.1417 -1.9848,-0.2126 -2.3392,-0.2127 -0.2127,1e-4 -0.4253,0.1064 -0.6379,0.319 l 0,0.1063 c -10e-5,0.1418 -0.071,0.2127 -0.2127,0.2127 -1.1342,0 -2.3037,-0.1063 -3.5087,-0.319 -1.1342,-0.2126 -2.2329,-0.3189 -3.2961,-0.319 -0.3545,1e-4 -0.6026,0.1064 -0.7443,0.319 -0.1418,0.2127 -0.319,0.319 -0.5316,0.319 -0.2127,0 -0.4254,-0.1063 -0.638,-0.319 -0.2127,-0.2126 -0.4253,-0.3189 -0.6379,-0.319 -0.9924,1e-4 -1.9848,0.1064 -2.9772,0.319 -0.9924,0.2127 -1.9493,0.319 -2.8708,0.319 -0.9924,0 -2.091,-0.035 -3.296,-0.1064 -1.2051,-0.071 -2.4456,-0.1417 -3.7214,-0.2126 -1.276,-0.1417 -2.5164,-0.248 -3.7214,-0.319 -1.2051,-0.1417 -2.3038,-0.2126 -3.2961,-0.2126 -0.5671,0 -1.0988,-0.1417 -1.5949,-0.4254 -0.4962,-0.3543 -1.0633,-0.5315 -1.7012,-0.5316 -0.9924,10e-5 -1.6658,-0.1062 -2.0202,-0.319 -0.3545,-0.2834 -0.6026,-0.6024 -0.7443,-0.9569 -0.3544,-0.7796 -0.6025,-1.3467 -0.7443,-1.7012 -0.1418,-0.4252 -0.5671,-0.9569 -1.2759,-1.5949 -0.4962,0.1419 -1.0278,0.4254 -1.5949,0.8506 -0.5671,0.4254 -0.8506,0.8861 -0.8506,1.3823 0,0.2836 0.071,0.7089 0.2127,1.2759 0.2835,0.9215 0.5316,1.8076 0.7442,2.6581 0.2836,0.8507 0.4253,1.7722 0.4253,2.7645 0,0.4253 -0.071,1.0279 -0.2126,1.8075 -0.071,0.7798 -0.1063,1.595 -0.1063,2.4455 0,0.8507 0.071,1.6304 0.2126,2.3392 0.1418,0.638 0.4608,1.0633 0.9569,1.2759 l 1.3823,0 c 0.3544,-1.205 0.7797,-2.1265 1.2759,-2.7645 0.5671,-0.6379 1.205,-1.0986 1.9139,-1.3822 0.7088,-0.2835 1.4531,-0.4253 2.2328,-0.4253 0.8506,-0.071 1.7721,-0.1417 2.7645,-0.2127 0.9923,-0.071 2.0556,-0.1062 3.1897,-0.1063 1.1342,-0.071 2.1974,-0.2126 3.1898,-0.4253 0.4962,0.7089 1.0278,1.0988 1.5949,1.1696 0.567,0.071 1.1341,0.319 1.7012,0.7443 0.1417,0.3544 0.3544,0.8861 0.638,1.5948 0.2835,0.6381 0.5316,1.3115 0.7442,2.0202 0.2835,0.7089 0.4962,1.3823 0.638,2.0202 0.2126,0.638 0.3189,1.0988 0.319,1.3823 -10e-5,1.0633 -0.2482,2.1265 -0.7443,3.1897 -0.4253,0.9925 -0.638,2.0203 -0.638,3.0835 0,0.2127 0.035,0.5671 0.1064,1.0632 0.071,0.4254 0.1771,0.9216 0.3189,1.4886 0.1418,0.4962 0.2835,0.9924 0.4253,1.4885 0.1418,0.4963 0.2835,0.8861 0.4253,1.1696 -0.2835,0.5671 -0.5316,1.1342 -0.7442,1.7012 -0.1418,0.4963 -0.319,1.0279 -0.5317,1.5949 0.1418,0.4254 0.2127,1.7367 0.2127,3.9341 0,2.1265 0,4.5366 0,7.2301 0,2.6936 -0.035,5.2809 -0.1063,7.7618 -10e-5,2.4101 -10e-5,4.0404 0,4.891 l 0.7442,0.4253 c -0.6379,0.9215 -0.9924,1.9139 -1.0632,2.9771 -0.071,1.0633 -0.1773,2.1265 -0.319,3.1898 -0.1418,0.8506 -0.4962,1.4531 -1.0633,1.8075 -0.4962,0.2836 -1.1696,0.4962 -2.0201,0.638 -0.9215,0.2126 -1.8076,0.4253 -2.6582,0.6379 -0.7797,0.1418 -1.4886,0.6025 -2.1265,1.3823 0.1418,0.4962 0.4253,1.0278 0.8506,1.5948 0.4962,0.4962 0.9924,0.7443 1.4886,0.7443 0.3544,0 0.9569,-0.035 1.8075,-0.1063 0.8506,-0.1418 1.7721,-0.2835 2.7645,-0.4253 0.9923,-0.2126 2.0201,-0.3544 3.0834,-0.4253 1.0633,-0.1418 1.9847,-0.2126 2.7645,-0.2127 2.41,10e-5 4.7846,0.1418 7.1238,0.4253 2.41,0.2836 4.7492,0.4254 7.0175,0.4253 0.9215,10e-5 1.524,-0.071 1.8075,-0.2126 0.2835,-0.1418 0.8152,-0.4253 1.5949,-0.8506 l 0,-1.5949 -0.7442,-1.1696 c -0.8507,0 -1.6659,-0.035 -2.4455,-0.1063 -0.7798,-0.1418 -1.5595,-0.2126 -2.3392,-0.2127 -0.7089,10e-5 -1.3468,-0.6379 -1.9139,-1.9138 -0.4962,-1.2759 -0.9569,-2.729 -1.3822,-4.3594 -0.3545,-1.6303 -0.638,-3.2252 -0.8506,-4.7846 -0.2127,-1.5594 -0.319,-2.6227 -0.319,-3.1898 0,-2.0556 0.2481,-4.0403 0.7443,-5.9542 0.567,-1.9139 0.8506,-3.8986 0.8506,-5.9543 l 0,-21.4778 c 0,-0.3543 -0.2127,-0.886 -0.638,-1.5949 -0.3544,-0.7087 -0.6379,-1.2404 -0.8506,-1.5948 0.5671,-0.4962 1.0633,-1.0632 1.4886,-1.7013 0.4961,-0.6378 0.9923,-1.2049 1.4886,-1.7012 0.4961,-0.567 1.0632,-1.0277 1.7012,-1.3822 0.6379,-0.4252 1.3822,-0.6379 2.2328,-0.638 0.071,10e-5 0.2835,10e-5 0.638,0 0.3543,10e-5 0.7088,0.036 1.0632,0.1064 0.3544,0 0.6734,0.036 0.957,0.1063 0.3543,10e-5 0.567,0.035 0.6379,0.1063 0.2835,0.2127 0.567,0.3191 0.8506,0.319 0.2835,10e-5 0.4962,-0.1063 0.638,-0.319 l 0.1063,-0.1063 0,-0.1063 c 0.071,-0.071 0.1417,-0.1063 0.2126,-0.1064 2.41,10e-5 4.2885,0.4609 5.6353,1.3823 1.3467,0.9215 2.4454,2.5164 3.2961,4.7846 0.2835,-0.1417 0.4253,-0.2126 0.4253,-0.2126 0.071,-0.071 0.1772,-0.1063 0.319,-0.1063 0.6379,0 1.0632,-0.3544 1.2759,-1.0633 0.4961,-2.41 0.8151,-4.9618 0.9569,-7.6555 0.1417,-1.3467 0.2481,-2.658 0.319,-3.934 0.071,-1.3467 0.1772,-2.729 0.319,-4.1467"
               id="path3131"
               style="font-size:106.32571411px;font-weight:500;text-align:center;writing-mode:lr-tb;text-anchor:middle;font-family:Windlass;-inkscape-font-specification:Windlass Medium"
               inkscape:connector-curvature="0" />
          </g>
        </g>
        <g
           transform="translate(159.99882,188.13454)"
           id="g102">
          <g
             id="text104"
             style="font-size:66.45357513px;text-align:start;line-height:100%;letter-spacing:0px;word-spacing:0px;text-anchor:start;fill:#000000;font-family:Sans"
             transform="translate(-4.7638332,0)">
            <path
               d="m -1422.3706,1355.1419 c 0,-0.6378 -0.1418,-1.5948 -0.4253,-2.8707 -0.2836,-1.2759 -0.6734,-2.5872 -1.1695,-3.9341 -0.4254,-1.3467 -0.9216,-2.5872 -1.4886,-3.7214 -0.5671,-1.1341 -1.0988,-1.8783 -1.5949,-2.2328 0.2835,-0.6379 -0.071,-1.3468 -1.0632,-2.1266 -0.9216,-0.8505 -2.0557,-1.6302 -3.4025,-2.3391 -1.3468,-0.7797 -2.6936,-1.4176 -4.0403,-1.9139 -1.276,-0.4961 -2.162,-0.7442 -2.6582,-0.7443 -3.6151,10e-5 -7.2302,0.2837 -10.8452,0.8506 -3.5442,0.4963 -7.1239,0.7444 -10.7389,0.7443 -0.9924,10e-5 -1.9493,-0.071 -2.8708,-0.2126 -0.8506,-0.1417 -1.7721,-0.2126 -2.7645,-0.2127 -0.6379,10e-5 -1.2759,0.071 -1.9138,0.2127 -0.638,0.1418 -1.3114,0.2127 -2.0202,0.2126 -0.2836,10e-5 -0.4253,-0.035 -0.4253,-0.1063 0,-0.3543 -0.2127,-0.4252 -0.638,-0.2127 -0.3544,0.2128 -0.6379,0.3191 -0.8506,0.319 -0.5671,10e-5 -1.2759,-0.071 -2.1265,-0.2126 -0.7797,-0.1417 -1.6303,-0.2835 -2.5518,-0.4253 -0.9215,-0.2126 -1.8076,-0.3898 -2.6582,-0.5317 -0.8506,-0.1416 -1.5594,-0.2125 -2.1265,-0.2126 -0.4962,10e-5 -0.9569,0.2836 -1.3822,0.8506 -0.3544,0.5671 -0.6025,1.0279 -0.7443,1.3822 2.7645,0.6381 4.7492,2.1975 5.9543,4.6784 1.205,2.4101 1.8075,4.9973 1.8075,7.7617 0,1.2051 0.071,2.3393 0.2126,3.4025 0.2127,1.0633 0.3899,2.0911 0.5317,3.0834 0.2126,0.9924 0.3544,2.0203 0.4253,3.0835 0.1417,1.0633 0.1417,2.1974 0,3.4024 -0.2836,2.0557 -0.5317,4.5011 -0.7443,7.3364 -0.1418,2.8354 -0.2835,5.7417 -0.4253,8.7188 -0.1418,2.9771 -0.2481,5.9188 -0.319,8.825 -0.071,2.8354 -0.1063,5.3517 -0.1063,7.5491 0,0.2836 0.035,0.8506 0.1063,1.7012 0.071,0.8507 0.1063,1.7721 0.1063,2.7645 0,0.9215 -0.071,1.8076 -0.2126,2.6581 -0.071,0.7798 -0.2836,1.2405 -0.638,1.3823 0.4253,0.2126 0.7797,0.5316 1.0633,0.9569 0.3544,0.4253 0.5316,0.8861 0.5316,1.3822 0,0.4254 -0.2126,1.0633 -0.6379,1.9139 -0.3545,0.8506 -0.8152,1.7367 -1.3823,2.6581 -0.4962,0.9215 -1.0632,1.7367 -1.7012,2.4455 -0.6379,0.638 -1.1696,0.957 -1.5949,0.957 -0.4253,0 -0.9569,0.035 -1.5948,0.1063 -0.638,0 -1.276,0.1063 -1.9139,0.319 -0.5671,0.2126 -1.0633,0.5316 -1.4886,0.9569 -0.4253,0.4253 -0.6379,0.9924 -0.6379,1.7012 0,1.1342 0.4607,1.9139 1.3822,2.3392 0.8506,-0.4253 1.9848,-0.7797 3.4024,-1.0633 1.4177,-0.2835 2.8708,-0.4962 4.3594,-0.6379 1.5594,-0.2127 3.048,-0.3545 4.4657,-0.4253 1.4176,-0.1418 2.5518,-0.2127 3.4024,-0.2127 2.0556,0 3.9695,0.3544 5.7416,1.0633 1.8429,0.6379 3.6859,0.9569 5.5289,0.9569 0.2126,0 0.6025,-0.035 1.1696,-0.1063 0.6379,0 1.2759,-0.071 1.9139,-0.2127 0.6379,-0.071 1.2404,-0.1417 1.8075,-0.2126 0.567,-0.071 0.9215,-0.1772 1.0633,-0.319 l 0,-1.8075 c -0.2127,-0.3545 -0.5671,-0.7089 -1.0633,-1.0633 -0.4253,-0.4253 -0.8861,-0.6379 -1.3822,-0.638 -0.3545,10e-5 -0.638,0.071 -0.8506,0.2127 -0.1418,0.1418 -0.3899,0.2127 -0.7443,0.2127 -2.1266,0 -3.6151,-0.9924 -4.4657,-2.9772 -0.8506,-1.9847 -1.4177,-4.3948 -1.7012,-7.2301 -0.2127,-2.9062 -0.3899,-5.9188 -0.5316,-9.0377 -0.1418,-3.1897 -0.5671,-5.9188 -1.276,-8.1871 0.4962,-0.567 1.0278,-1.2404 1.5949,-2.0202 0.638,-0.8505 0.9569,-1.6657 0.957,-2.4455 -10e-5,-0.4961 -0.035,-1.0632 -0.1064,-1.7012 -0.071,-0.7088 -0.071,-1.3113 0,-1.8075 0.1418,-0.567 0.3544,-1.0278 0.638,-1.3822 0.3544,-0.4253 0.9569,-0.638 1.8075,-0.638 0,-0.071 0,-0.1063 0,-0.1063 0.071,0 0.1063,0 0.1064,0 0.567,-0.2126 1.2404,-0.319 2.0201,-0.319 0.8506,-0.071 1.5595,-0.1417 2.1266,-0.2127 2.0556,-0.1417 4.1466,-0.248 6.2732,-0.3189 2.1265,-0.1418 4.2175,-0.3899 6.2732,-0.7443 0.071,0 0.2835,0 0.6379,0 0.3544,-0.071 0.5671,-0.1772 0.638,-0.319 2.1974,-0.8506 4.3593,-1.9138 6.4859,-3.1898 2.1973,-1.3467 4.1466,-2.9061 5.8479,-4.6783 1.7011,-1.772 3.0479,-3.7568 4.0404,-5.9542 1.0632,-2.1974 1.5948,-4.572 1.5948,-7.1239 m -14.4602,0.1064 c -0.3545,2.9063 -0.8861,5.4581 -1.5949,7.6554 -0.638,2.1266 -1.595,3.9341 -2.8708,5.4226 -1.276,1.4178 -2.9417,2.5165 -4.9973,3.2961 -2.0557,0.7089 -4.5721,1.0633 -7.5492,1.0633 l -6.2732,-0.1063 c -0.2835,-0.8506 -0.4253,-1.6658 -0.4253,-2.4455 0,-0.8506 -0.035,-1.6657 -0.1063,-2.4455 0,-0.8506 -0.1064,-1.6657 -0.319,-2.4455 -0.1418,-0.8506 -0.5316,-1.7012 -1.1696,-2.5518 0.638,-0.6379 1.0987,-1.9138 1.3823,-3.8278 0.3544,-1.9138 0.6025,-3.9694 0.7442,-6.1668 0.2127,-2.2683 0.319,-4.4302 0.319,-6.4859 0.071,-2.1265 0.1772,-3.6859 0.319,-4.6783 0.6379,-0.1417 1.4531,-0.4253 2.4455,-0.8507 1.0632,-0.4961 1.8784,-0.7442 2.4455,-0.7442 2.2682,0 4.0049,0.1418 5.2099,0.4253 1.2759,0.2127 2.3392,0.5671 3.1898,1.0632 0.9215,0.4963 1.843,1.1342 2.7645,1.9139 0.9923,0.7089 2.3745,1.5595 4.1467,2.5518 -0.071,0.7798 -0.1064,1.5241 -0.1063,2.2328 0.071,0.709 0.1062,1.4532 0.1063,2.2329 -10e-5,1.1342 0.071,2.0911 0.2126,2.8708 0.2126,0.7798 0.9215,1.4532 2.1266,2.0202"
               id="path3134"
               style="font-size:106.32571411px;font-weight:500;text-align:center;writing-mode:lr-tb;text-anchor:middle;font-family:Windlass;-inkscape-font-specification:Windlass Medium"
               inkscape:connector-curvature="0" />
          </g>
          <g
             id="text108"
             style="font-size:66.45357513px;text-align:start;line-height:100%;letter-spacing:0px;word-spacing:0px;text-anchor:start;fill:#000000;font-family:Sans"
             transform="translate(-1.5879444,0)">
            <path
               d="m -1395.0026,1346.6842 c -0.3544,-0.3543 -0.7089,-0.6379 -1.0633,-0.8506 -0.2835,-0.2126 -0.6025,-0.4252 -0.9569,-0.6379 l -1.4885,0.4253 -0.5317,-0.2127 c -0.9924,0.1418 -2.0911,0.3899 -3.2961,0.7443 -1.205,0.3545 -2.3037,0.5317 -3.2961,0.5316 l -4.3593,0 c -0.3545,-0.1417 -0.8861,-0.248 -1.5949,-0.319 -0.638,-0.1417 -1.3468,-0.248 -2.1265,-0.3189 -0.7089,-0.1417 -1.4177,-0.2126 -2.1265,-0.2127 -0.7089,-0.071 -1.2759,-0.1417 -1.7012,-0.2126 l -1.276,1.3822 c 0,0.5671 0.2127,1.0279 0.638,1.3822 0.4962,0.2836 1.0278,0.5317 1.5949,0.7443 0.6379,0.2127 1.2404,0.4254 1.8075,0.638 0.5671,0.1418 0.9924,0.3899 1.2759,0.7442 0.2836,0.3545 0.4962,0.9216 0.638,1.7013 0.2126,0.7089 0.3544,1.4886 0.4253,2.3391 0.1417,0.7798 0.2126,1.595 0.2126,2.4455 0.071,0.7798 0.1064,1.4532 0.1064,2.0202 0.1417,0.1418 0.2126,0.3899 0.2126,0.7443 0,0.9215 -0.035,1.8076 -0.1063,2.6581 0,0.7798 0.2835,1.5595 0.8506,2.3392 l -0.7443,1.3822 c 0.1418,1.7722 0.2835,3.6151 0.4253,5.529 0.1418,1.843 0.2127,3.5796 0.2127,5.2099 0,1.5595 -0.1418,3.1189 -0.4253,4.6783 -0.2836,1.5595 -0.4253,3.1544 -0.4253,4.7847 0,0.9924 0.1772,1.9493 0.5316,2.8708 0.3544,0.9215 0.5316,1.8785 0.5316,2.8708 0,2.1974 -0.1063,4.4657 -0.319,6.8048 -0.1417,2.2683 -0.4962,4.4303 -1.0632,6.4859 -0.3544,1.2759 -0.9924,2.1265 -1.9139,2.5518 -0.9215,0.3545 -1.8784,0.7089 -2.8708,1.0633 -0.7088,0.2835 -1.0632,0.6379 -1.0632,1.0632 0,0.1418 0.035,0.319 0.1063,0.5317 0.071,0.2126 0.1418,0.3898 0.2126,0.5316 0.4254,0.071 0.7798,0.1418 1.0633,0.2126 0.2835,0.071 0.6025,0.2127 0.9569,0.4254 0.2127,-0.071 0.6734,-0.2127 1.3823,-0.4254 0.7088,-0.2126 1.1341,-0.3189 1.2759,-0.3189 0.3544,0 0.6734,0 0.9569,0 0.3544,0 0.7088,0.071 1.0633,0.2126 l 0.5316,-0.6379 c 2.4809,0 4.891,0.1772 7.2301,0.5316 2.4101,0.3544 4.9265,0.5316 7.5492,0.5316 0.071,-0.2835 0.1417,-0.5316 0.2126,-0.7443 0.071,-0.2835 0.1063,-0.6025 0.1063,-0.9569 l 0,-0.319 c 0.1418,-0.4961 -0.071,-0.8506 -0.6379,-1.0632 -1.843,-0.4253 -3.0835,-0.9924 -3.7214,-1.7012 -0.638,-0.7797 -0.957,-2.162 -0.9569,-4.1467 l 0,-0.5317 c 0.071,-0.2126 0.1063,-0.6025 0.1063,-1.1695 l -1.1696,0 0,-0.1064 1.2759,-2.4455 c -0.1418,-0.3544 -0.3544,-0.7088 -0.6379,-1.0632 -0.2127,-0.4253 -0.319,-0.8506 -0.319,-1.2759 0,-0.5671 0.1772,-1.1341 0.5316,-1.7012 0.3544,-0.5671 0.5316,-1.2405 0.5316,-2.0202 0,-0.9924 -0.1063,-1.9493 -0.3189,-2.8708 -0.1418,-0.9215 -0.2127,-1.8784 -0.2127,-2.8708 0,-1.2759 0.035,-2.5518 0.1063,-3.8277 0.1418,-1.2759 0.2127,-2.5518 0.2127,-3.8278 0,-1.5594 -0.1064,-3.0834 -0.319,-4.572 -0.2127,-1.5594 -0.3544,-3.1543 -0.4253,-4.7846 l 0.9569,-1.3823 c 0,-0.7088 -0.035,-1.2758 -0.1063,-1.7012 -0.071,-0.4961 -0.2835,-1.0277 -0.6379,-1.5949 l 0,-7.8681 c -10e-5,-0.4961 -10e-5,-1.2049 0,-2.1265 0.071,-0.9214 0.1772,-1.8075 0.3189,-2.6581 0.2127,-0.8506 0.5316,-1.5948 0.957,-2.2329 0.4961,-0.6378 1.1695,-0.9568 2.0202,-0.9569 0.3544,10e-5 0.7088,0.071 1.0632,0.2127 l 0.4253,-0.4253 c 0.3544,0 0.5671,-0.1772 0.638,-0.5317 0.1417,-0.4252 0.2835,-0.8151 0.4253,-1.1696 0,-0.071 0,-0.1417 0,-0.2126 0.071,-0.071 0.248,-0.1771 0.5316,-0.319"
               id="path3137"
               style="font-size:106.32571411px;font-weight:500;text-align:center;writing-mode:lr-tb;text-anchor:middle;font-family:Windlass;-inkscape-font-specification:Windlass Medium"
               inkscape:connector-curvature="0" />
          </g>
          <g
             id="text112"
             style="font-size:66.45357513px;text-align:start;line-height:100%;letter-spacing:0px;word-spacing:0px;text-anchor:start;fill:#000000;font-family:Sans"
             transform="translate(0.79397219,0)">
            <path
               d="m -1269.4171,1419.8864 c -1e-4,-0.638 -0.3545,-1.0633 -1.0633,-1.276 -1.276,1.2051 -2.5519,2.5873 -3.8277,4.1467 -1.276,1.5595 -2.6228,3.0126 -4.0404,4.3594 -1.4177,1.4177 -2.9417,2.5873 -4.572,3.5088 -1.6304,0.9214 -3.4379,1.3822 -5.4226,1.3822 -0.7798,0 -1.6304,-0.1064 -2.5518,-0.319 -0.8507,-0.2127 -1.5595,0.035 -2.1265,0.7443 l -0.4253,-0.4253 c -0.2128,0 -0.3545,-0.035 -0.4253,-0.1063 l -0.2127,-0.1064 c -0.1418,0 -0.2836,-0.035 -0.4253,-0.1063 -0.1418,0 -0.2836,0 -0.4253,0 -0.4254,0 -0.7089,0.1418 -0.8506,0.4253 -0.1418,0.2835 -0.3899,0.4253 -0.7443,0.4253 -0.7798,0 -1.4532,-0.1063 -2.0201,-0.319 -0.5672,-0.2126 -1.1343,-0.6025 -1.7013,-1.1695 -0.638,-10e-5 -1.4886,-0.1418 -2.5518,-0.4253 -0.9924,-0.2836 -2.0202,-0.638 -3.0834,-1.0633 -0.9925,-0.3544 -1.8785,-0.7089 -2.6582,-1.0633 -0.7089,-0.2835 -1.0633,-0.4962 -1.0632,-0.6379 -1e-4,-0.071 -0.2836,-0.3544 -0.8506,-0.8506 -0.5672,-0.4253 -1.2051,-0.8861 -1.9139,-1.3823 -0.7089,-0.4253 -1.4177,-0.8506 -2.1265,-1.2759 -0.638,-0.3544 -1.0633,-0.5316 -1.2759,-0.5316 -0.1418,0 -0.3191,0.035 -0.5316,0.1063 -0.1419,0.071 -0.3191,0.1418 -0.5317,0.2127 -0.071,0 -0.2127,-0.1063 -0.4253,-0.319 -0.2127,-0.1418 -0.4608,-0.3544 -0.7442,-0.6379 -0.2128,-0.2127 -0.4254,-0.4608 -0.638,-0.7443 -0.1418,-0.2127 -0.2482,-0.3544 -0.319,-0.4253 -1.2051,-1.3468 -2.481,-2.5873 -3.8277,-3.7214 -1.276,-1.2051 -2.6937,-2.3392 -4.253,-3.4025 -0.1419,-0.6379 -0.39,-1.2759 -0.7443,-1.9138 -0.2836,-0.7088 -0.6026,-1.3822 -0.9569,-2.0202 -0.4963,-0.7797 -0.957,-1.524 -1.3823,-2.2328 -0.4253,-0.7089 -0.8152,-1.4886 -1.1696,-2.3392 l 0,0.6379 c 0,-0.071 -0.3544,-0.567 -1.0632,-1.4885 -0.638,-0.9215 -1.4886,-2.0911 -2.5518,-3.5088 -0.9925,-1.4176 -2.1266,-2.9771 -3.4025,-4.6783 -1.205,-1.7012 -2.4101,-3.2961 -3.615,-4.7847 -1.1342,-1.5594 -2.162,-2.9062 -3.0835,-4.0403 -0.9215,-1.205 -1.5949,-2.0202 -2.0202,-2.4455 0.071,-0.4962 -0.035,-1.0632 -0.3189,-1.7012 -0.2127,-0.7088 -0.5672,-1.3822 -1.0633,-2.0202 -0.4253,-0.7088 -0.8861,-1.3113 -1.3822,-1.8076 -0.4963,-0.567 -0.9216,-0.9923 -1.2759,-1.2759 l -0.4253,-1.3822 c 1.9138,-0.6379 3.7568,-1.4885 5.5289,-2.5518 1.772,-1.0632 3.3669,-2.2683 4.7846,-3.6151 1.4177,-1.4176 2.5518,-2.9771 3.4025,-4.6783 0.8505,-1.7012 1.2758,-3.5442 1.2759,-5.529 -1e-4,-0.4961 -0.1418,-1.2049 -0.4253,-2.1265 -0.2127,-0.9923 -0.4963,-1.9847 -0.8506,-2.9771 -0.3545,-1.0632 -0.7798,-2.0201 -1.2759,-2.8708 -0.4254,-0.9214 -0.8861,-1.5948 -1.3823,-2.0202 0,-0.567 -0.4253,-1.1695 -1.2759,-1.8075 -0.8506,-0.6379 -1.843,-1.2404 -2.9771,-1.8076 -1.0633,-0.567 -2.1266,-1.0277 -3.1898,-1.3822 -1.0633,-0.4252 -1.7721,-0.6379 -2.1265,-0.6379 -1.9139,0 -3.9341,0.035 -6.0606,0.1063 -2.0556,10e-5 -4.1821,10e-5 -6.3795,0 -2.1974,10e-5 -4.3594,0.035 -6.4859,0.1063 -2.1265,10e-5 -4.1467,10e-5 -6.0605,0 -0.5671,10e-5 -1.1342,0.036 -1.7012,0.1063 -0.4962,0.071 -1.0279,0.1064 -1.5949,0.1064 l -0.1064,0.1063 c -0.071,-0.2126 -0.1772,-0.3189 -0.3189,-0.319 -0.1418,-0.071 -0.2836,-0.071 -0.4253,0 -0.4962,0.1419 -0.7443,0.2482 -0.7443,0.319 0.071,1e-4 -0.1772,-0.071 -0.7443,-0.2127 l -1.7012,-0.3189 c -0.5671,-0.1417 -1.1696,-0.2481 -1.8075,-0.319 -0.5671,-0.071 -0.9924,-0.1063 -1.2759,-0.1063 -0.3545,0 -0.7443,0.2127 -1.1696,0.6379 -0.3545,0.3545 -0.6734,0.8152 -0.957,1.3822 2.0557,1.276 3.5088,2.8 4.3594,4.572 0.8506,1.7722 1.2759,3.6861 1.2759,5.7416 0,2.0557 0.1418,4.1822 0.4253,6.3796 0.3544,2.1265 0.3899,4.1822 0.1063,6.1669 -0.2126,1.6303 -0.3544,3.4024 -0.4253,5.3163 0,1.9139 0.035,3.8632 0.1064,5.8479 -1e-4,1.9848 0.035,3.9695 0.1063,5.9542 0.071,1.9139 0.1063,3.686 0.1063,5.3163 0,0.9215 0.035,2.0911 0.1063,3.5087 0.1418,1.4177 -0.1063,2.481 -0.7443,3.1898 0.9215,0.638 1.3823,1.2405 1.3823,1.8076 0,0.2835 -0.1772,0.7797 -0.5316,1.4885 -0.2836,0.638 -0.638,1.3114 -1.0633,2.0202 -0.4253,0.638 -0.8861,1.205 -1.3822,1.7012 -0.4962,0.4962 -0.8861,0.7443 -1.1696,0.7443 -0.4253,0 -0.9215,0.035 -1.4886,0.1063 -0.5671,0 -1.1341,0.1064 -1.7012,0.319 -0.4962,0.1418 -0.9215,0.3899 -1.2759,0.7443 -0.3544,0.3544 -0.5316,0.8506 -0.5316,1.4885 0,0.8507 0.4607,1.5595 1.3822,2.1266 0.7088,-0.3545 1.6658,-0.638 2.8708,-0.8507 1.2759,-0.2835 2.5518,-0.4961 3.8277,-0.6379 1.2759,-0.1418 2.4809,-0.2481 3.6151,-0.319 1.205,-0.071 2.1265,-0.1063 2.7645,-0.1063 1.6303,0 3.1897,0.2481 4.6783,0.7443 1.5594,0.4962 3.1543,0.7443 4.7847,0.7442 0.2126,10e-5 0.5316,10e-5 0.9569,0 0.4961,-0.071 0.9923,-0.1063 1.4885,-0.1063 0.5671,-0.071 1.0987,-0.1417 1.5949,-0.2126 0.4962,-0.071 0.8861,-0.1772 1.1696,-0.319 l 0,-1.7012 c -0.2127,-0.3544 -0.5316,-0.6734 -0.9569,-0.9569 -0.4253,-0.3545 -0.8506,-0.5317 -1.2759,-0.5317 -0.2836,0 -0.5317,0.071 -0.7443,0.2127 -0.1418,0.071 -0.3544,0.1063 -0.638,0.1063 -1.6303,0 -2.6936,-0.7443 -3.1897,-2.2328 -0.4962,-1.4886 -0.7798,-3.367 -0.8506,-5.6353 -10e-5,-0.9924 -10e-5,-2.0556 0,-3.1898 0.071,-1.205 0.1063,-2.41 0.1063,-3.615 0,-1.205 -0.071,-2.3746 -0.2127,-3.5088 -0.1418,-1.1341 -0.3544,-2.1619 -0.6379,-3.0834 0.3544,-0.7797 0.4607,-1.8075 0.319,-3.0835 -0.1418,-1.3467 -0.2127,-2.4454 -0.2127,-3.2961 l 0,-0.8506 c 0,0 -0.035,0 -0.1063,0 0,-0.071 0.035,-0.1063 0.1063,-0.1063 l 0.2127,0 c 0.3544,0 0.6733,0.035 0.9569,0.1063 0.2835,0 0.6025,0 0.9569,0 0.4962,0 1.1696,0.4254 2.0202,1.2759 0.9215,0.7798 1.9493,1.8785 3.0835,3.2961 1.205,1.3468 2.4809,2.9417 3.8277,4.7847 1.3467,1.7721 2.729,3.6505 4.1467,5.6352 1.4176,1.9139 2.7999,3.8632 4.1467,5.8479 1.4176,1.9139 2.729,3.7215 3.934,5.4227 1.205,1.6303 2.2683,3.0834 3.1898,4.3593 0.9215,1.2759 1.6657,2.1974 2.2329,2.7645 2.41,2.3392 4.8554,4.8201 7.3364,7.4428 2.5518,2.6936 5.2099,4.9618 7.9745,6.8048 0.4252,0.2836 1.2404,0.7089 2.4454,1.2759 1.205,0.5671 2.6227,1.2051 4.2531,1.9139 1.7011,0.7088 3.4378,1.4177 5.2099,2.1265 1.8429,0.7797 3.5796,1.4531 5.21,2.0202 1.7011,0.6379 3.1542,1.1341 4.3594,1.4886 1.2049,0.4252 2.0201,0.6379 2.4454,0.6379 0.567,0 1.1341,-0.035 1.7013,-0.1063 0.5669,-0.071 1.134,-0.1418 1.7012,-0.2127 l 0.7442,0.638 c 0.8506,-0.2127 1.5948,-0.319 2.2329,-0.319 0.4961,0 0.9214,-0.1418 1.2759,-0.4253 0.3543,-0.2835 0.7442,-0.4253 1.1696,-0.4253 1.3467,0 2.4808,-0.035 3.4024,-0.1063 0.9923,-0.071 2.1973,-0.2481 3.6151,-0.5316 l 0.7443,-0.638 c 1.6302,-0.7088 3.4732,-1.6658 5.5289,-2.8708 2.0555,-1.1341 3.7213,-2.3037 4.9973,-3.5087 0.1417,-0.1418 0.4606,-0.638 0.9569,-1.4886 0.4961,-0.7797 0.9923,-1.6658 1.4886,-2.6581 0.5669,-0.9215 1.0631,-1.8076 1.4886,-2.6582 0.4251,-0.7797 0.6378,-1.2759 0.6379,-1.4885 m -79.7443,-58.1602 c -0.2836,2.1974 -0.7089,4.0759 -1.2759,5.6353 -0.5671,1.5594 -1.3823,2.8708 -2.4455,3.934 -1.0633,1.0633 -2.4455,1.8785 -4.1467,2.4455 -1.6303,0.5671 -3.6505,0.9215 -6.0605,1.0633 l -6.9112,0.4253 c -0.2127,-0.638 -0.2127,-1.2759 0,-1.9139 0.2126,-0.6379 0.4253,-1.2759 0.6379,-1.9139 0.2127,-0.6379 0.319,-1.2758 0.319,-1.9138 0.071,-0.7088 -0.1418,-1.4177 -0.6379,-2.1265 0.4252,-0.5671 0.6733,-1.4177 0.7442,-2.5519 0.071,-1.2049 0.071,-2.4454 0,-3.7214 -0.071,-1.3467 -0.1772,-2.658 -0.3189,-3.934 -0.1418,-1.3467 -0.2482,-2.41 -0.319,-3.1898 -0.071,-0.7796 -0.1418,-1.453 -0.2127,-2.0202 0,-0.567 0.036,-1.0632 0.1064,-1.4885 0.4252,-0.1417 1.0632,-0.3544 1.9138,-0.638 0.9215,-0.3543 1.5594,-0.5315 1.9139,-0.5316 1.8429,10e-5 3.3669,0.1418 4.572,0.4253 1.205,0.2127 2.3037,0.5671 3.2961,1.0632 1.0632,0.4254 2.091,0.957 3.0834,1.5949 1.0633,0.638 2.3392,1.3469 3.8278,2.1265 0.071,0.7089 0.3543,1.4532 0.8506,2.2329 0.567,0.7798 0.8505,1.4532 0.8506,2.0202 -10e-5,0.3544 -0.071,0.638 -0.2127,0.8506 -0.071,0.2127 -0.1772,0.4608 -0.319,0.7443 -0.2835,0.5671 -0.035,1.0278 0.7443,1.3822"
               id="path3140"
               style="font-size:106.32571411px;font-weight:500;text-align:center;writing-mode:lr-tb;text-anchor:middle;font-family:Windlass;-inkscape-font-specification:Windlass Medium"
               inkscape:connector-curvature="0" />
          </g>
          <g
             id="text116"
             style="font-size:66.45357513px;text-align:start;line-height:100%;letter-spacing:0px;word-spacing:0px;text-anchor:start;fill:#000000;font-family:Sans"
             transform="translate(2.3819166,0)">
            <path
               d="m -1255.6515,1408.7711 c -0.4254,-0.071 -1.1343,-0.2126 -2.1266,-0.4253 -0.9215,-0.2835 -1.843,-0.6025 -2.7644,-0.9569 -0.9216,-0.4253 -1.7368,-0.8506 -2.4455,-1.2759 -0.7089,-0.4253 -1.0633,-0.8506 -1.0633,-1.2759 -1.1342,-1.4177 -2.4455,-3.5088 -3.934,-6.2733 -1.4178,-2.8353 -2.9063,-5.9896 -4.4657,-9.4629 -1.4886,-3.5442 -2.9772,-7.2656 -4.4657,-11.1642 -1.4886,-3.8986 -2.8354,-7.6554 -4.0404,-11.2706 -1.205,-3.615 -2.162,-6.9111 -2.8708,-9.8883 -0.7088,-2.977 -1.0633,-5.3162 -1.0632,-7.0175 -10e-5,-0.3543 0.3898,-0.7796 1.1696,-1.2759 0.7796,-0.4961 1.1695,-1.0632 1.1695,-1.7012 0,-0.567 -0.2481,-1.0277 -0.7442,-1.3822 -0.4254,-0.3544 -0.9216,-0.5316 -1.4886,-0.5316 -1.7012,0 -3.4025,0.071 -5.1036,0.2126 -1.7013,0.071 -3.4379,0.1064 -5.21,0.1063 -0.4253,10e-5 -0.7797,0.1064 -1.0632,0.319 -0.2836,0.2127 -0.5671,0.3191 -0.8507,0.319 -1.6303,10e-5 -3.2606,-0.2126 -4.8909,-0.638 -1.6304,-0.4252 -3.2607,-0.6378 -4.891,-0.6379 -0.5671,10e-5 -1.1342,0.2481 -1.7012,0.7443 -0.4962,0.4253 -0.7443,0.9215 -0.7443,1.4885 0,1.0634 0.567,1.7013 1.7012,1.9139 1.205,0.1418 2.5164,0.319 3.9341,0.5316 1.4176,0.1419 2.6935,0.4963 3.8277,1.0633 1.205,0.5671 1.8075,1.8076 1.8075,3.7214 0,0.4962 -0.2481,1.3823 -0.7443,2.6581 -0.4253,1.276 -1.0278,2.7291 -1.8075,4.3594 -0.7089,1.6304 -1.524,3.4024 -2.4455,5.3163 -0.8506,1.843 -1.7012,3.5796 -2.5518,5.2099 -0.8506,1.6304 -1.6658,3.0835 -2.4455,4.3594 -0.7089,1.2759 -1.2759,2.162 -1.7012,2.6581 0.1417,0.5671 0.2126,1.0279 0.2126,1.3822 0,0.3545 0,0.7798 0,1.276 l 0.5317,0.3189 0.4253,0.1064 -0.4253,-0.1064 c -0.7798,10e-5 -1.5241,0.638 -2.2329,1.9139 -0.7088,1.2051 -1.3822,2.6227 -2.0202,4.253 -0.567,1.6304 -1.0632,3.2253 -1.4885,4.7847 -0.4253,1.5594 -0.7443,2.6581 -0.957,3.2961 -0.9923,3.1189 -2.5518,5.7416 -4.6783,7.8681 -2.1265,2.1265 -4.6783,4.2176 -7.6554,6.2732 l 0.5316,1.4886 c 0.3544,0.071 0.6734,0.1772 0.9569,0.3189 0.2836,0.071 0.5671,0.1064 0.8506,0.1064 0.9924,0 1.9493,-0.1418 2.8708,-0.4253 0.9215,-0.3545 1.8784,-0.6025 2.8708,-0.7443 l 0.8506,0.6379 c 0.7089,-0.3544 1.7012,-0.6025 2.9771,-0.7443 1.2759,-0.1417 2.3038,-0.2126 3.0835,-0.2126 0.9923,0 1.9847,0.1063 2.9771,0.319 0.9924,0.2126 1.9847,0.319 2.9771,0.319 0.7797,0 1.4886,-0.035 2.1265,-0.1064 0.638,-0.1417 1.2405,-0.567 1.8076,-1.2759 -0.1418,-0.8506 -0.4962,-1.4531 -1.0633,-1.8075 -0.5671,-0.3544 -1.2405,-0.638 -2.0202,-0.8506 -0.4253,-0.1418 -0.886,-0.2481 -1.3822,-0.319 -0.4962,-0.1418 -0.9924,-0.319 -1.4886,-0.5316 -0.4962,-0.2127 -0.9215,-0.4608 -1.2759,-0.7443 -0.2835,-0.3544 -0.4253,-0.8152 -0.4253,-1.3822 0,-0.7798 0.2127,-1.7367 0.638,-2.8708 0.4962,-1.205 0.9215,-2.1974 1.2759,-2.9772 0.2126,-0.4252 0.3544,-0.886 0.4253,-1.3822 0.1417,-0.4962 0.2835,-1.0278 0.4253,-1.5949 0.1417,-0.7088 0.2835,-1.4176 0.4253,-2.1265 0.2126,-0.7088 0.4962,-1.3468 0.8506,-1.9139 0.3544,-0.6379 0.8152,-1.1341 1.3822,-1.4885 0.5671,-0.4253 1.3114,-0.6379 2.2329,-0.638 1.0632,10e-5 2.091,-0.1417 3.0834,-0.4253 0.9924,-0.2835 1.9847,-0.4252 2.9771,-0.4253 0.2127,10e-5 0.4608,0.1773 0.7443,0.5317 0.2835,0.3544 0.6025,0.5316 0.957,0.5316 0.3543,0 0.6024,-0.071 0.7442,-0.2127 0.2127,-0.1417 0.4253,-0.2835 0.638,-0.4253 0.1417,-0.1417 0.3189,-0.248 0.5316,-0.319 0.2126,-0.071 0.5316,-0.1062 0.957,-0.1063 0.3543,10e-5 1.0632,10e-5 2.1265,0 1.0632,-0.071 2.1619,-0.071 3.2961,0 0.9923,0.1418 1.8783,0.2836 2.6581,0.4253 0.8506,0.071 1.2759,0.3545 1.2759,0.8506 0,0.7089 -0.2127,1.4177 -0.6379,2.1265 1.2049,2.481 2.1619,4.9974 2.8708,7.5492 0.7796,2.4809 1.5948,4.9619 2.4454,7.4428 -0.4962,0.4253 -1.1696,0.7443 -2.0201,0.9569 -0.7798,0.1418 -1.595,0.319 -2.4455,0.5316 -0.7798,0.2127 -1.4532,0.5317 -2.0202,0.957 -0.4962,0.3544 -0.7443,0.9215 -0.7443,1.7012 0.3544,0.3544 0.6734,0.6379 0.9569,0.8506 0.3544,0.2126 0.7797,0.319 1.2759,0.319 2.1974,0 4.4302,-0.2481 6.6986,-0.7443 2.2682,-0.4962 4.5365,-0.7443 6.8048,-0.7443 1.9138,0 3.8631,0.2127 5.8479,0.638 1.9847,0.4253 3.8986,0.6379 5.7416,0.6379 0.7797,0 1.3822,-0.2835 1.8075,-0.8506 0.4253,-0.5671 0.7088,-1.2405 0.8507,-2.0202 m -32.1104,-26.9004 c -0.3545,0.1418 -0.9215,0.2127 -1.7012,0.2127 -1.3469,0 -2.6228,0.2126 -3.8278,0.6379 -1.1341,0.4254 -2.3391,0.638 -3.615,0.638 -0.5671,0 -1.4886,-0.1063 -2.7645,-0.319 -1.205,-0.2126 -2.162,-0.3898 -2.8708,-0.5316 -0.1418,-0.2835 -0.2127,-0.5671 -0.2126,-0.8506 -10e-5,-0.638 0.3189,-1.4886 0.9569,-2.5519 0.7088,-1.0632 1.4885,-2.2682 2.3392,-3.615 0.8505,-1.3468 1.6303,-2.729 2.3391,-4.1467 0.7088,-1.4177 1.0987,-2.8353 1.1696,-4.2531 0.071,-0.7796 0.4607,-1.6302 1.1696,-2.5518 1.4176,2.8354 2.6935,5.7062 3.8277,8.6124 1.1341,2.8354 2.1974,5.7416 3.1898,8.7187"
               id="path3143"
               style="font-size:106.32571411px;font-weight:500;text-align:center;writing-mode:lr-tb;text-anchor:middle;font-family:Windlass;-inkscape-font-specification:Windlass Medium"
               inkscape:connector-curvature="0" />
          </g>
          <g
             id="text120"
             style="font-size:66.45357513px;text-align:start;line-height:100%;letter-spacing:0px;word-spacing:0px;text-anchor:start;fill:#000000;font-family:Sans"
             transform="translate(2.3819166,0)">
            <path
               d="m -1206.188,1339.9121 -3.2961,0 c 0.071,0.9216 -0.071,1.6658 -0.4253,2.2328 -0.3545,0.5672 -0.8507,1.0279 -1.4886,1.3823 -0.5671,0.2836 -1.2405,0.4962 -2.0202,0.6379 -0.7089,0.1419 -1.4177,0.2127 -2.1265,0.2127 -0.5671,0 -1.2051,0.2127 -1.9139,0.6379 -0.7089,0.3545 -1.3468,0.5317 -1.9138,0.5317 -0.2127,0 -0.3899,-0.035 -0.5317,-0.1064 -0.3544,-0.071 -1.1341,-0.1771 -2.3391,-0.319 -1.2051,-0.1416 -1.9848,-0.2125 -2.3392,-0.2126 -0.2127,10e-5 -0.4253,0.1064 -0.6379,0.319 l 0,0.1063 c -10e-5,0.1418 -0.071,0.2127 -0.2127,0.2127 -1.1342,0 -2.3038,-0.1063 -3.5087,-0.319 -1.1342,-0.2126 -2.2329,-0.3189 -3.2961,-0.319 -0.3545,10e-5 -0.6026,0.1064 -0.7443,0.319 -0.1418,0.2127 -0.319,0.319 -0.5317,0.319 -0.2126,0 -0.4253,-0.1063 -0.6379,-0.319 -0.2127,-0.2126 -0.4253,-0.3189 -0.638,-0.319 -0.9924,10e-5 -1.9847,0.1064 -2.9771,0.319 -0.9924,0.2127 -1.9493,0.319 -2.8708,0.319 -0.9924,0 -2.0911,-0.035 -3.2961,-0.1064 -1.205,-0.071 -2.4455,-0.1417 -3.7214,-0.2126 -1.2759,-0.1417 -2.5164,-0.248 -3.7214,-0.319 -1.205,-0.1417 -2.3037,-0.2126 -3.2961,-0.2127 -0.5671,10e-5 -1.0987,-0.1416 -1.5949,-0.4253 -0.4962,-0.3543 -1.0632,-0.5315 -1.7012,-0.5316 -0.9923,10e-5 -1.6657,-0.1062 -2.0202,-0.319 -0.3544,-0.2834 -0.6025,-0.6024 -0.7442,-0.9569 -0.3545,-0.7796 -0.6026,-1.3467 -0.7443,-1.7012 -0.1418,-0.4252 -0.5671,-0.9569 -1.2759,-1.5949 -0.4962,0.1419 -1.0278,0.4254 -1.5949,0.8506 -0.5671,0.4254 -0.8506,0.8861 -0.8506,1.3822 0,0.2837 0.071,0.709 0.2126,1.276 0.2836,0.9215 0.5317,1.8076 0.7443,2.6581 0.2835,0.8507 0.4253,1.7722 0.4253,2.7645 0,0.4253 -0.071,1.0279 -0.2126,1.8075 -0.071,0.7798 -0.1064,1.595 -0.1064,2.4455 0,0.8507 0.071,1.6304 0.2127,2.3392 0.1418,0.638 0.4607,1.0633 0.9569,1.2759 l 1.3823,0 c 0.3544,-1.205 0.7797,-2.1265 1.2759,-2.7645 0.567,-0.6379 1.205,-1.0986 1.9138,-1.3822 0.7089,-0.2835 1.4531,-0.4253 2.2329,-0.4253 0.8506,-0.071 1.7721,-0.1417 2.7644,-0.2127 0.9924,-0.071 2.0557,-0.1062 3.1898,-0.1063 1.1341,-0.071 2.1974,-0.2126 3.1898,-0.4253 0.4961,0.7089 1.0278,1.0988 1.5949,1.1696 0.567,0.071 1.1341,0.319 1.7012,0.7442 0.1417,0.3545 0.3544,0.8862 0.6379,1.5949 0.2835,0.6381 0.5316,1.3114 0.7443,2.0202 0.2835,0.7089 0.4962,1.3823 0.638,2.0202 0.2126,0.638 0.3189,1.0988 0.3189,1.3822 0,1.0634 -0.2481,2.1266 -0.7442,3.1898 -0.4254,0.9924 -0.638,2.0203 -0.638,3.0835 0,0.2127 0.035,0.5671 0.1063,1.0632 0.071,0.4254 0.1772,0.9216 0.319,1.4886 0.1418,0.4962 0.2835,0.9924 0.4253,1.4885 0.1418,0.4963 0.2835,0.8861 0.4253,1.1696 -0.2835,0.5671 -0.5316,1.1342 -0.7443,1.7012 -0.1418,0.4963 -0.319,1.0279 -0.5316,1.5949 0.1418,0.4254 0.2126,1.7367 0.2127,3.9341 -10e-5,2.1265 -10e-5,4.5366 0,7.2301 -10e-5,2.6936 -0.035,5.2809 -0.1064,7.7618 0,2.4101 0,4.0404 0,4.891 l 0.7443,0.4253 c -0.638,0.9215 -0.9924,1.9139 -1.0632,2.9771 -0.071,1.0633 -0.1773,2.1265 -0.319,3.1898 -0.1418,0.8506 -0.4962,1.4531 -1.0633,1.8075 -0.4962,0.2836 -1.1696,0.4962 -2.0202,0.638 -0.9215,0.2126 -1.8075,0.4253 -2.6581,0.6379 -0.7797,0.1418 -1.4886,0.6025 -2.1265,1.3823 0.1417,0.4962 0.4253,1.0278 0.8506,1.5948 0.4962,0.4962 0.9923,0.7443 1.4885,0.7443 0.3544,0 0.957,-0.035 1.8076,-0.1063 0.8506,-0.1418 1.7721,-0.2835 2.7644,-0.4253 0.9924,-0.2127 2.0202,-0.3544 3.0835,-0.4253 1.0632,-0.1418 1.9847,-0.2127 2.7645,-0.2127 2.41,0 4.7846,0.1418 7.1238,0.4253 2.41,0.2836 4.7492,0.4254 7.0175,0.4253 0.9214,10e-5 1.5239,-0.071 1.8075,-0.2126 0.2835,-0.1418 0.8151,-0.4253 1.5949,-0.8506 l 0,-1.5949 -0.7443,-1.1696 c -0.8506,0 -1.6658,-0.035 -2.4455,-0.1063 -0.7797,-0.1418 -1.5594,-0.2126 -2.3391,-0.2127 -0.7089,10e-5 -1.3469,-0.6379 -1.9139,-1.9138 -0.4962,-1.2759 -0.957,-2.729 -1.3822,-4.3594 -0.3545,-1.6303 -0.638,-3.2252 -0.8506,-4.7846 -0.2127,-1.5595 -0.319,-2.6227 -0.319,-3.1898 0,-2.0556 0.248,-4.0404 0.7443,-5.9542 0.567,-1.9139 0.8505,-3.8986 0.8506,-5.9543 l 0,-21.4778 c -10e-5,-0.3543 -0.2127,-0.886 -0.638,-1.5949 -0.3544,-0.7087 -0.638,-1.2404 -0.8506,-1.5949 0.567,-0.4961 1.0632,-1.0631 1.4886,-1.7012 0.4961,-0.6379 0.9923,-1.2049 1.4885,-1.7012 0.4962,-0.567 1.0633,-1.0277 1.7012,-1.3822 0.638,-0.4252 1.3822,-0.6379 2.2329,-0.638 0.071,1e-4 0.2835,1e-4 0.6379,0 0.3544,1e-4 0.7088,0.036 1.0633,0.1064 0.3544,0 0.6733,0.035 0.9569,0.1063 0.3544,10e-5 0.5671,0.035 0.638,0.1063 0.2835,0.2127 0.567,0.3191 0.8506,0.319 0.2835,10e-5 0.4961,-0.1063 0.6379,-0.319 l 0.1064,-0.1063 0,-0.1063 c 0.071,-0.071 0.1417,-0.1063 0.2126,-0.1064 2.41,1e-4 4.2884,0.4609 5.6353,1.3823 1.3467,0.9215 2.4454,2.5164 3.2961,4.7846 0.2835,-0.1417 0.4252,-0.2126 0.4253,-0.2126 0.071,-0.071 0.1771,-0.1063 0.319,-0.1063 0.6379,0 1.0632,-0.3544 1.2759,-1.0633 0.4961,-2.41 0.8151,-4.9618 0.9569,-7.6555 0.1417,-1.3467 0.248,-2.658 0.319,-3.934 0.071,-1.3467 0.1771,-2.729 0.319,-4.1467"
               id="path3146"
               style="font-size:106.32571411px;font-weight:500;text-align:center;writing-mode:lr-tb;text-anchor:middle;font-family:Windlass;-inkscape-font-specification:Windlass Medium"
               inkscape:connector-curvature="0" />
          </g>
          <g
             id="text124"
             style="font-size:66.45357513px;text-align:start;line-height:100%;letter-spacing:0px;word-spacing:0px;text-anchor:start;fill:#000000;font-family:Sans"
             transform="translate(3.969861,0)">
            <path
               d="m -1148.1094,1339.1615 c -10e-5,-0.7797 -0.3899,-1.2759 -1.1696,-1.4886 l -1.4886,0 c -0.2127,1.276 -0.9569,2.4101 -2.2328,3.4024 -1.276,0.9216 -2.8708,1.7013 -4.7847,2.3392 -1.843,0.638 -3.8986,1.1696 -6.1668,1.5949 -2.2684,0.3545 -4.5012,0.638 -6.6986,0.8506 -2.1974,0.2127 -4.253,0.3545 -6.1669,0.4253 -1.843,0.071 -3.3315,0.1064 -4.4656,0.1063 -0.7798,10e-5 -1.5949,-0.1062 -2.4455,-0.319 -0.7798,-0.2125 -1.5595,-0.3189 -2.3392,-0.3189 -0.5671,0 -1.0633,-0.035 -1.4886,-0.1064 -0.3544,-0.1417 -0.7088,-0.2125 -1.0632,-0.2126 -1.4886,10e-5 -3.0126,-0.035 -4.572,-0.1063 -1.4886,-0.071 -3.0126,-0.1063 -4.572,-0.1064 -0.2836,10e-5 -0.5671,-0.1062 -0.8506,-0.319 -0.2836,-0.2125 -0.638,-0.3189 -1.0633,-0.3189 -0.4253,0 -0.8506,0.1418 -1.2759,0.4253 -0.4253,0.2127 -0.8152,0.4608 -1.1696,0.7443 l 0,1.7012 c 0.4253,0.5671 0.8152,0.957 1.1696,1.1695 0.4253,0.1419 0.8152,0.2482 1.1696,0.319 0.4253,10e-5 0.8506,0.035 1.2759,0.1064 0.4253,0.071 0.886,0.2127 1.3822,0.4253 0.2127,0.9924 0.3544,2.0202 0.4253,3.0834 0.071,0.9924 0.1418,1.9848 0.2127,2.9771 0.3544,0.2127 0.5316,0.5317 0.5316,0.957 0.071,0.3544 0.1063,0.6734 0.1063,0.9569 0,2.3392 0.071,4.6784 0.2127,7.0175 0.1417,2.2683 0.2126,4.572 0.2126,6.9112 0,1.4886 -0.2126,2.9417 -0.6379,4.3593 -0.4253,1.4177 -0.638,2.8708 -0.638,4.3594 0,0.5671 0.2127,0.9924 0.638,1.2759 0.4253,0.2835 0.6379,0.6025 0.6379,0.9569 0,1.6304 -0.1063,3.5088 -0.3189,5.6353 -0.2127,2.0556 -0.4608,4.1821 -0.7443,6.3795 -0.2836,2.1265 -0.638,4.2176 -1.0633,6.2732 -0.3544,2.0557 -0.6734,3.9341 -0.9569,5.6353 -0.071,0.2835 -0.2835,0.5316 -0.638,0.7443 -0.3544,0.1417 -0.7442,0.2835 -1.1695,0.4253 -0.5671,0.2126 -1.0987,0.4253 -1.5949,0.6379 -0.4962,0.1418 -0.9924,0.3545 -1.4886,0.638 0,0.4962 0,0.9569 0,1.3822 0.071,0.3544 0.2481,0.7797 0.5316,1.2759 0.3545,0 0.7089,0.071 1.0633,0.2127 0.3544,0.071 0.7088,0.1063 1.0633,0.1063 1.2759,0 2.6581,-0.1063 4.1467,-0.319 2.2682,-0.3544 4.572,-0.7797 6.9111,-1.2759 2.3392,-0.4962 4.6075,-0.7443 6.8049,-0.7443 1.4176,0 3.0125,0.036 4.7846,0.1064 1.7721,0 3.5796,0.035 5.4226,0.1063 1.843,0.071 3.6151,0.1772 5.3163,0.319 1.7721,0.071 3.3315,0.2126 4.6784,0.4253 1.4885,0.2126 2.7998,0.6734 3.934,1.3822 1.1341,0.638 2.091,1.3468 2.8708,2.1265 0.4253,0.3544 0.7797,0.7089 1.0633,1.0633 0.3543,0.3544 0.6733,0.6734 0.9569,0.9569 0.7088,0.7088 1.2404,1.0633 1.5949,1.0633 0.4252,0 0.8505,-0.3545 1.2759,-1.0633 0.4252,-0.7088 0.7088,-1.2405 0.8506,-1.5949 l 0,-0.5316 -0.2127,-0.638 c -0.4253,-1.3468 -0.7797,-2.6935 -1.0632,-4.0403 -0.2127,-1.4177 -0.319,-2.8354 -0.319,-4.2531 0,-1.2759 0.071,-2.5163 0.2127,-3.7214 0.1417,-1.205 0.6733,-2.3746 1.5948,-3.5087 -0.3544,-0.3544 -0.7797,-0.8152 -1.2759,-1.3823 -0.4962,-0.6379 -0.9924,-0.9569 -1.4885,-0.9569 l -0.5317,0 c -0.5671,0.7798 -1.0987,1.6658 -1.5948,2.6582 -0.4963,0.9215 -1.0633,1.8075 -1.7012,2.6581 -0.5672,0.7797 -1.276,1.4531 -2.1266,2.0202 -0.7797,0.5671 -1.7367,0.8506 -2.8708,0.8506 -1.1341,0 -2.5164,0.035 -4.1467,0.1063 -1.6303,0.071 -3.2961,0.1418 -4.9973,0.2127 -1.7012,0 -3.367,0.035 -4.9973,0.1063 -1.6303,0.071 -3.0126,0.1063 -4.1467,0.1063 -0.4253,0 -0.886,-0.2126 -1.3822,-0.6379 -0.4253,-0.4962 -0.9924,-0.7797 -1.7012,-0.8506 l -0.638,0.3189 c -0.2835,-0.071 -0.638,-0.248 -1.0632,-0.5316 -0.071,-0.7088 -0.071,-1.3113 0,-1.8075 0.1417,-0.5671 0.2126,-1.1696 0.2126,-1.8076 0,-1.1341 -0.4253,-2.091 -1.2759,-2.8708 0.2126,-0.3544 0.3898,-0.6024 0.5316,-0.7442 0.1418,-0.1418 0.4253,-0.1772 0.8506,-0.1064 l 0,-4.8909 c 0,-0.9215 -0.035,-1.7721 -0.1063,-2.5519 0,-0.7797 -0.035,-1.5594 -0.1063,-2.3391 -0.1418,-1.4886 -0.071,-2.5873 0.2126,-3.2961 0.2836,-0.7797 0.8861,-1.4177 1.8076,-1.9139 0.9923,-0.4961 2.729,-0.7442 5.2099,-0.7443 1.0633,1e-4 2.4101,0.036 4.0404,0.1064 1.7012,0 3.4024,0.071 5.1036,0.2126 1.7721,0.071 3.4733,0.2127 5.1037,0.4253 1.6303,0.2127 2.9416,0.4962 3.934,0.8506 0.071,0.1418 0.1418,0.319 0.2127,0.5316 0.1417,0.1418 0.2835,0.3191 0.4253,0.5317 0.4961,0.638 0.9214,0.9569 1.2759,0.9569 0.3544,0 0.9214,0 1.7012,0 0.2126,-1.4885 0.3544,-2.9416 0.4253,-4.3594 0.071,-1.4176 0.1772,-2.7998 0.319,-4.1467 0.2126,-1.3467 0.4961,-2.6581 0.8506,-3.934 0.4252,-1.3467 1.0632,-2.6935 1.9139,-4.0404 l -1.0633,-1.4885 -1.8075,0 c -0.9925,0.9215 -1.7722,1.7367 -2.3392,2.4454 -0.4962,0.6381 -0.957,1.2051 -1.3822,1.7013 -0.3545,0.4253 -0.7089,0.8506 -1.0633,1.2759 -0.2836,0.4253 -0.638,0.7797 -1.0633,1.0632 -0.4253,0.2836 -0.9569,0.5317 -1.5948,0.7443 -0.638,0.1418 -1.4886,0.2836 -2.5519,0.4253 -1.0632,0.071 -2.3746,0.1418 -3.934,0.2127 -1.5595,0 -3.4733,0 -5.7416,0 -0.3544,0 -0.8506,0.2127 -1.4886,0.6379 l -0.6379,0.4253 c -0.071,10e-5 -0.1064,0.035 -0.1063,0.1063 0.071,10e-5 0.1063,10e-5 0.1063,0 l -5.8479,-0.9569 c -0.4253,-0.071 -0.7798,-0.4961 -1.0633,-1.2759 -0.2835,-0.8506 -0.4962,-1.772 -0.6379,-2.7645 -0.1418,-0.9923 -0.2481,-1.9847 -0.319,-2.9771 -0.071,-0.9923 -0.1064,-1.6657 -0.1063,-2.0202 -10e-5,-0.2835 0.071,-0.9569 0.2126,-2.0202 0.1418,-1.134 0.2835,-2.3036 0.4253,-3.5087 0.2126,-1.2759 0.3899,-2.4454 0.5316,-3.5088 0.2127,-1.0632 0.3899,-1.7011 0.5317,-1.9138 0.071,-0.2126 0.3898,-0.4253 0.9569,-0.638 0.5671,-0.2834 1.1696,-0.5315 1.8075,-0.7443 0.7089,-0.2125 1.3823,-0.3543 2.0202,-0.4253 0.638,-0.1417 1.0987,-0.2125 1.3823,-0.2126 0.3544,1e-4 0.8151,-0.2126 1.3822,-0.638 l 0.5316,-0.3189 c 0.1418,-0.1417 0.2481,-0.2126 0.319,-0.2127 l 10.8452,1.7012 c 0.2835,0.071 0.5316,10e-5 0.7443,-0.2126 l 0.2127,-0.1064 c 0.2835,-0.1417 0.4607,-0.2125 0.5316,-0.2126 0.2835,1e-4 0.8506,0.1418 1.7012,0.4253 0.8506,0.2127 1.7366,0.5317 2.6581,0.9569 0.9924,0.3545 1.9139,0.7444 2.7645,1.1696 0.8506,0.3545 1.4531,0.638 1.8075,0.8506 1.0633,-0.9214 1.6658,-1.8783 1.8076,-2.8708 0.1417,-1.0632 0.2835,-2.2328 0.4253,-3.5087 0.071,-0.567 0.248,-1.2404 0.5316,-2.0202 0.2835,-0.8506 0.6025,-1.7366 0.9569,-2.6582 0.1418,-0.4252 0.2835,-0.8505 0.4254,-1.2759 0.1417,-0.4252 0.2834,-0.8151 0.4253,-1.1696 0.3543,-0.7087 0.5315,-1.2403 0.5316,-1.5948"
               id="path3149"
               style="font-size:106.32571411px;font-weight:500;text-align:center;writing-mode:lr-tb;text-anchor:middle;font-family:Windlass;-inkscape-font-specification:Windlass Medium"
               inkscape:connector-curvature="0" />
          </g>
          <g
             id="text128"
             style="font-size:66.45357513px;text-align:start;line-height:100%;letter-spacing:0px;word-spacing:0px;text-anchor:start;fill:#000000;font-family:Sans"
             transform="translate(4.7638332,0)">
            <path
               d="m -1086.5136,1391.7722 c -10e-5,-1.4176 -0.39,-2.9416 -1.1696,-4.572 -0.7089,-1.7012 -1.6658,-3.2606 -2.8708,-4.6783 -1.2051,-1.4177 -2.5873,-2.5873 -4.1467,-3.5088 -1.5595,-0.9214 -3.1898,-1.3822 -4.891,-1.3822 -0.2127,0 -0.6026,-0.1063 -1.1696,-0.319 -0.5671,-0.2126 -1.205,-0.4253 -1.9138,-0.6379 -0.7089,-0.2835 -1.3823,-0.5671 -2.0202,-0.8507 -0.638,-0.2834 -1.0988,-0.4961 -1.3823,-0.6379 -0.2835,0 -0.7443,-0.1063 -1.3822,-0.319 -0.5671,-0.2126 -1.2051,-0.4607 -1.9139,-0.7443 -0.638,-0.2835 -1.2759,-0.567 -1.9138,-0.8506 -0.638,-0.2835 -1.0988,-0.4961 -1.3823,-0.6379 -0.7088,0.1418 -1.3468,0.1418 -1.9138,0 -0.5671,-0.1417 -1.1696,-0.2835 -1.8076,-0.4253 -2.41,-0.4253 -4.1467,-0.8151 -5.2099,-1.1696 -0.9924,-0.4253 -1.7721,-0.9569 -2.3392,-1.5949 -0.3544,-0.3544 -0.6734,-0.7442 -0.9569,-1.1696 -0.2127,-0.4252 -0.4962,-0.9214 -0.8506,-1.4885 -0.3545,-0.6379 -0.7798,-1.3468 -1.2759,-2.1266 -0.4254,-0.7796 -0.9924,-1.6657 -1.7012,-2.6581 l 0,-3.1898 c 0.3544,-0.4252 0.9569,-1.134 1.8075,-2.1265 0.8506,-0.9923 1.7366,-1.9492 2.6581,-2.8708 0.9924,-0.9923 1.9139,-1.8429 2.7645,-2.5518 0.9215,-0.7796 1.5594,-1.1695 1.9139,-1.1696 0.6379,10e-5 1.2404,0.1064 1.8075,0.319 0.6379,0.1418 1.2404,0.2127 1.8075,0.2127 0.7797,0 1.524,-0.035 2.2329,-0.1064 0.7797,-0.071 1.5594,-0.1062 2.3391,-0.1063 0.9924,10e-5 2.1974,0.2482 3.6151,0.7443 1.4885,0.4254 2.8708,0.9924 4.1467,1.7012 1.3468,0.7089 2.4809,1.5241 3.4024,2.4455 0.9924,0.8507 1.4886,1.7367 1.4886,2.6581 l 0,0.5317 c 0.2126,0.4962 0.3898,0.9924 0.5316,1.4885 0.1418,0.4963 0.3544,0.957 0.638,1.3823 -0.3545,0.4962 -0.2836,0.9924 0.2126,1.4885 0.4962,0.4254 0.9569,0.638 1.3823,0.638 l 1.2759,0 c 0.3544,-0.3544 0.7442,-0.6734 1.1696,-0.957 0.4252,-0.3543 0.6379,-0.8151 0.6379,-1.3822 0,-1.5594 -0.2836,-3.0479 -0.8506,-4.4657 -0.4962,-1.4176 -0.7443,-2.9062 -0.7443,-4.4657 0,-1.3467 0.071,-2.5163 0.2127,-3.5087 0.1417,-0.9923 0.3189,-1.9492 0.5316,-2.8708 0.2835,-0.9923 0.6379,-1.9492 1.0633,-2.8708 0.4961,-0.9923 1.0632,-2.1264 1.7012,-3.4024 -0.2127,-0.4252 -0.5317,-0.8505 -0.9569,-1.2759 -0.4254,-0.4252 -0.9216,-0.6379 -1.4886,-0.638 -0.9215,10e-5 -1.6658,0.4608 -2.2328,1.3823 -0.5672,0.9215 -1.0279,1.8785 -1.3823,2.8707 -0.071,0.1419 -0.1772,0.39 -0.319,0.7443 -0.1418,0.3545 -0.319,0.7444 -0.5316,1.1696 -0.1418,0.3545 -0.319,0.6735 -0.5316,0.9569 -0.2127,0.2836 -0.4254,0.4254 -0.638,0.4253 -2.1265,1e-4 -4.2885,-0.1771 -6.4858,-0.5316 -2.1266,-0.4252 -4.2531,-0.6379 -6.3796,-0.6379 -0.5671,0 -1.1696,0.071 -1.8075,0.2126 -0.5671,0.1419 -1.1342,0.2836 -1.7012,0.4253 -1.0633,0.3545 -2.0557,0.5317 -2.9772,0.5316 -2.1974,1e-4 -4.1821,0.2837 -5.9542,0.8506 -1.7721,0.5672 -3.4379,1.6659 -4.9973,3.2961 -0.2835,-0.1417 -0.5316,-0.1417 -0.7443,0 -0.8506,0.6381 -1.6303,1.2051 -2.3391,1.7013 -0.638,0.4962 -1.276,0.957 -1.9139,1.3822 -2.0556,1.5595 -3.5796,3.1189 -4.572,4.6783 -0.9924,1.4886 -1.4886,3.5797 -1.4886,6.2732 0,1.7013 0.4253,3.438 1.2759,5.21 0.8506,1.7013 1.9848,3.2607 3.4025,4.6783 1.4176,1.4178 3.0125,2.5873 4.7846,3.5088 1.7721,0.8506 3.5796,1.2759 5.4226,1.2759 0.2127,0 0.5671,0.1772 1.0633,0.5316 0.7088,0.5671 1.1695,0.9215 1.3822,1.0633 0.2835,0.071 0.9215,0.2127 1.9139,0.4253 0.4253,0.1418 0.886,0.2836 1.3822,0.4253 0.4962,0.071 0.9924,0.1772 1.4886,0.319 0.9214,0.2126 1.772,0.4253 2.5518,0.6379 0.2126,0.1418 0.3898,0.2836 0.5316,0.4253 0.2126,0.071 0.3544,0.2836 0.4253,0.638 0.9924,-0.2126 1.7012,-0.2481 2.1265,-0.1064 0.4253,0.1418 1.0987,0.2836 2.0202,0.4253 0.9215,0.1418 1.8784,0.2482 2.8708,0.319 1.0632,1e-4 1.9847,0.2482 2.7645,0.7443 1.205,0.7798 2.3391,2.162 3.4024,4.1467 1.1341,1.9139 2.0556,3.5797 2.7645,4.9973 l -0.7443,-0.1063 c -0.4253,0.4253 -1.1342,1.0633 -2.1265,1.9139 -0.9215,0.8506 -1.9139,1.8075 -2.9771,2.8707 -0.9924,0.9924 -1.9139,1.9848 -2.7645,2.9772 -0.7798,0.9215 -1.2759,1.7012 -1.4886,2.3391 -0.4253,-0.071 -0.886,-0.1417 -1.3822,-0.2126 -0.4253,-0.1418 -0.8152,-0.2835 -1.1696,-0.4253 l -0.7443,0.7443 c -1.205,0.071 -2.3746,0.2481 -3.5087,0.5316 -1.1342,0.2127 -2.2683,0.4607 -3.4024,0.7443 l -0.5317,-0.4253 c -0.2835,-0.071 -0.5671,-0.1418 -0.8506,-0.2127 -0.2126,-0.071 -0.4607,-0.1063 -0.7442,-0.1063 -0.4963,0 -0.957,0.1063 -1.3823,0.319 -0.3544,0.1417 -0.7443,0.2126 -1.1696,0.2126 l -0.1063,0 c -0.3544,-0.1417 -0.7797,-0.3189 -1.2759,-0.5316 -0.4962,-0.2126 -0.8506,-0.319 -1.0633,-0.319 -0.3544,0 -1.0987,-0.3544 -2.2328,-1.0632 -1.0633,-0.7798 -2.1974,-1.6304 -3.4024,-2.5519 -1.1342,-0.9923 -2.162,-1.9492 -3.0835,-2.8708 -0.9215,-0.9214 -1.4176,-1.5594 -1.4885,-1.9138 -0.1418,-0.7088 -0.2127,-1.3822 -0.2127,-2.0202 0,-0.7088 -0.2126,-1.4177 -0.6379,-2.1265 0.1417,-1.205 -0.3545,-2.162 -1.4886,-2.8708 -1.0632,-0.7797 -2.1619,-1.205 -3.2961,-1.2759 -0.3544,0.5671 -0.5671,1.1341 -0.6379,1.7012 0,0.4962 0,0.9569 0,1.3822 0,2.1974 0.3544,4.324 1.0632,6.3796 0.7089,2.0556 1.0633,4.2176 1.0633,6.4858 0,0.8507 -0.1418,1.7013 -0.4253,2.5518 -0.2836,0.7798 -0.6025,1.5949 -0.957,2.4455 -0.3544,0.7798 -0.6734,1.5949 -0.9569,2.4455 -0.2835,0.8506 -0.4253,1.7012 -0.4253,2.5518 0,0.4254 0.1418,0.8507 0.4253,1.276 0.1418,0.2835 0.2481,0.7088 0.319,1.2759 l 3.6151,0 c 0.4961,-0.5671 0.886,-1.3114 1.1695,-2.2329 0.2836,-0.9923 0.5671,-1.8784 0.8506,-2.6581 0.2836,-0.7797 0.5317,-1.4531 0.7443,-2.0202 0.2836,-0.638 0.6025,-0.9569 0.957,-0.9569 0.567,0 1.3113,0.1063 2.2328,0.3189 0.9215,0.1418 1.5594,0.5317 1.9139,1.1696 1.205,-0.1417 2.4809,-0.071 3.8277,0.2127 1.4176,0.2126 2.9416,0.4962 4.572,0.8506 0.7088,0.1418 1.4531,0.2835 2.2328,0.4253 0.7797,0.1418 1.5595,0.2835 2.3392,0.4253 0.7797,0.1418 1.5594,0.2481 2.3392,0.319 0.7797,0 1.5594,0.035 2.3391,0.1063 0.2835,0 0.5316,-0.035 0.7443,-0.1063 0.2126,-0.071 0.319,-0.2836 0.319,-0.638 0,-0.071 0.1417,-0.035 0.4253,0.1063 0.3544,0.071 0.7088,0.1064 1.0632,0.1064 l 2.4455,0 c 0.8506,0 1.9493,-0.2836 3.2961,-0.8506 1.3468,-0.638 2.3392,-1.2405 2.9772,-1.8076 l 0.6379,0 0.8506,0.7443 c 1.3468,-0.7797 2.5518,-1.4886 3.6151,-2.1265 1.1341,-0.7088 2.1973,-1.4177 3.1898,-2.1265 l 0.2126,0.1063 c 0.1417,0.071 0.2481,0.1418 0.319,0.2126 0.1417,10e-5 0.3898,10e-5 0.7443,0 0.3543,-0.3544 0.7796,-0.8151 1.2759,-1.3822 0.4961,-0.567 0.9923,-1.1341 1.4885,-1.7012 0.4962,-0.6379 0.886,-1.2759 1.1696,-1.9139 0.3544,-0.6379 0.5316,-1.2404 0.5317,-1.8075 -10e-5,-0.1417 -0.035,-0.2481 -0.1064,-0.319 0,-0.071 0,-0.1772 0,-0.319 l 0.957,-0.5316 -0.4253,-2.0202 c 0.4961,-0.4961 0.8151,-0.9214 0.9569,-1.2759 0.2126,-0.3544 0.3189,-0.9214 0.319,-1.7012"
               id="path3152"
               style="font-size:106.32571411px;font-weight:500;text-align:center;writing-mode:lr-tb;text-anchor:middle;font-family:Windlass;-inkscape-font-specification:Windlass Medium"
               inkscape:connector-curvature="0" />
          </g>
        </g>
      </g>
    </g>
  </g>
</svg>
