<?xml version="1.0" encoding="UTF-8" standalone="no"?>
<!-- Created with Inkscape (http://www.inkscape.org/) -->

<svg
   xmlns:dc="http://purl.org/dc/elements/1.1/"
   xmlns:cc="http://creativecommons.org/ns#"
   xmlns:rdf="http://www.w3.org/1999/02/22-rdf-syntax-ns#"
   xmlns:svg="http://www.w3.org/2000/svg"
   xmlns="http://www.w3.org/2000/svg"
   xmlns:sodipodi="http://sodipodi.sourceforge.net/DTD/sodipodi-0.dtd"
   xmlns:inkscape="http://www.inkscape.org/namespaces/inkscape"
   version="1.1"
   width="513.83429"
   height="519.45618"
   id="svg2"
   inkscape:version="0.48.4 r9939"
   sodipodi:docname="logo_notext.svg"
   inkscape:export-filename="/home/diafygi/Dropbox/dev/diafygi.github.io/assets/logo_notext.png"
   inkscape:export-xdpi="199.93987"
   inkscape:export-ydpi="199.93987">
  <sodipodi:namedview
     pagecolor="#ffffff"
     bordercolor="#666666"
     borderopacity="1"
     objecttolerance="10"
     gridtolerance="10"
     guidetolerance="10"
     inkscape:pageopacity="1"
     inkscape:pageshadow="2"
     inkscape:window-width="1391"
     inkscape:window-height="876"
     id="namedview67"
     showgrid="false"
     inkscape:zoom="0.34840119"
     inkscape:cx="402.1086"
     inkscape:cy="100.04631"
     inkscape:window-x="49"
     inkscape:window-y="24"
     inkscape:window-maximized="1"
     inkscape:current-layer="g12"
     fit-margin-top="5"
     fit-margin-left="5"
     fit-margin-right="5"
     fit-margin-bottom="5" />
  <style
     id="style4" />
  <defs
     id="defs6" />
  <metadata
     id="metadata8">
    <rdf:RDF>
      <cc:Work
         rdf:about="">
        <dc:format>image/svg+xml</dc:format>
        <dc:type
           rdf:resource="http://purl.org/dc/dcmitype/StillImage" />
        <dc:title></dc:title>
      </cc:Work>
    </rdf:RDF>
  </metadata>
  <g
     transform="translate(284.59207,-165.50496)"
     id="g10">
    <g
       transform="translate(1665.0911,-320.61845)"
       id="g12">
      <g
         transform="matrix(1.5237995,0,0,1.5237995,-2259.7241,397.9937)"
         id="g14">
        <g
           transform="translate(-2.9949457,-5.8832273)"
           id="g16"
           style="fill:#000000">
          <g
             id="g18"
             style="fill:#000000">
            <path
               d="m 255,221 c -7,0 -16,5 -20,11 -2,4 -5,7 -8,7 -9,2 -19,17 -17,25 2,10 10,14 28,16 28,4 76,23 124,49 48,27 66,36 70,36 3,0 14,8 24,17 5,5 13,11 17,14 15,9 25,7 35,-9 2,-3 4,-5 6,-4 4,1 13,-3 16,-8 2,-5 2,-14 -2,-17 -6,-6 -11,-7 -38,-9 -29,-1 -43,-5 -61,-15 -5,-3 -14,-7 -19,-10 -5,-3 -19,-11 -30,-17 -24,-14 -58,-33 -73,-40 -14,-8 -26,-18 -34,-30 -7,-11 -12,-16 -18,-16 z m -7.5,36.88 c 0.25,-0.12 0,0.62 -0.5,2.12 -1,4 0,4 10,7 10,3 23,9 23,11 0,1 -2,0 -7,-2 -3,-1 -11,-4 -17,-5 -7,-2 -12,-4 -13,-5 -1,-1 0,-3 2,-5 1.5,-2 2.25,-3 2.5,-3.12 z M 448,360 c 1,0 10,6 22,16 10,9 12,9 17,8 7,-2 10,0 4,3 -6,3 -8,3 -23,-9 -7,-7 -15,-13 -18,-14 -3,-1 -5,-4 -2,-4 z m 58.34,3 c 0.47,-0.01 1.03,0 1.66,0 2,0 4,1 4,2 0,3 -3,3 -6,1 -2.62,-2.62 -2.96,-2.96 0.34,-3 z"
               id="path20"
               style="fill:#000000"
               inkscape:connector-curvature="0" />
            <path
               d="m 339,320 -16,8 c -29,13 -41,15 -84,13 -11,-1 -15,0 -21,3 -7,4 -9,8 -8,16 2,6 5,9 14,12 5,2 7,4 8,8 1,3 4,8 7,10 11,9 26,4 51,-15 7,-5 18,-11 24,-13 9,-4 27,-12 50,-22 l 5,-2 -8,-5 c -5,-3 -12,-7 -15,-9 l -7,-4 z m -102.66,31.34 c 0.78,-0.03 1.41,0.16 1.66,0.66 1,0 0,2 -1,3 -3,2 -5,2 -6,0 -0.75,-1.5 3,-3.56 5.34,-3.66 z m 9.81,13.06 c 0.44,-0.19 1.66,1.66 3.84,5.59 4,8 5,9 13,6 4,-1 4,-1 1,3 -2,2 -5,3 -9,3 -5,0 -6,0 -7,-7 -1.69,-6.75 -2.41,-10.35 -1.84,-10.59 z"
               id="path22"
               style="fill:#000000"
               inkscape:connector-curvature="0" />
            <path
               d="m 497.66,226.94 c -2.03,-0.02 -3.97,0.31 -5.66,1.06 -2,1 -6,6 -10,11 -11,16 -23,25 -48,37 -35,16 -54,25 -53,26 0,1 7,5 14,9 l 14,8 18,-7 c 27,-11 62,-21 82,-23 22,-3 23,-3 28,-8 4,-5 5,-14 0,-21 -1,-3 -6,-8 -11,-11 -6,-3 -9,-7 -9,-9 0,-6.5 -10.56,-13 -19.34,-13.06 z M 505,264 l 1,5 c 2,5 -2,9 -8,9 -2,0 -9,2 -16,4 -6,1 -11,2 -11,2 0,-2 4,-4 19,-7 12,-3 13,-3 14,-8 l 1,-5 z"
               id="path24"
               style="fill:#000000"
               inkscape:connector-curvature="0" />
          </g>
          <g
             id="g26"
             style="fill:#000000">
            <path
               d="m 373,224 c -1,0 -2,1 -2,4 0,0 -1,6 1,5 2,0 6,2 5,-4 0,-3 -2,-5 -4,-5 z"
               id="path28"
               style="fill:#000000"
               inkscape:connector-curvature="0" />
            <path
               d="m 371,253 c -1,-5 -1,-8 3,-8 4,0 5,2 3,7 -2,5 -4,5 -6,1 z"
               id="path30"
               style="fill:#000000"
               inkscape:connector-curvature="0" />
            <path
               d="m 365,223 c -1,0 -3,3 -3,6 0,1 0,4 0,5 1,0 3,0 4,0 2,0 1,-6 1,-8 0,-2 -1,-3 -2,-3 0,0 0,0 0,0 z"
               id="path32"
               style="fill:#000000"
               inkscape:connector-curvature="0" />
            <path
               d="m 363,253 c -2,-2 -1,-8 1,-8 2,0 3,2 3,5 0,4 -2,5 -4,3 z"
               id="path34"
               style="fill:#000000"
               inkscape:connector-curvature="0" />
            <path
               d="m 385,253 c -2,-3 -1,-8 3,-8 2,0 3,1 3,4 -1,4 -4,6 -6,4 z"
               id="path36"
               style="fill:#000000"
               inkscape:connector-curvature="0" />
            <path
               d="m 354,251 c -2,-2 -1,-6 2,-6 1,0 2,2 2,4 0,3 -2,4 -4,2 z"
               id="path38"
               style="fill:#000000"
               inkscape:connector-curvature="0" />
            <path
               d="m 380,233 c -2,-2 1,-10 3,-10 3,1 4,10 0,11 -1,0 -3,0 -3,-1 z"
               id="path40"
               style="fill:#000000"
               inkscape:connector-curvature="0" />
            <path
               d="m 352,231 c -1,-4 0,-8 4,-8 1,0 2,2 2,5 0,6 -4,8 -6,3 z"
               id="path42"
               style="fill:#000000"
               inkscape:connector-curvature="0" />
            <path
               d="m 389,228 c 0,-4 1,-5 3,-5 2,1 3,2 3,5 0,3 -1,5 -3,5 -2,0 -3,-1 -3,-5 z"
               id="path44"
               style="fill:#000000"
               inkscape:connector-curvature="0" />
          </g>
          <g
             id="g46"
             style="fill:#000000">
            <path
               d="m 358,277 c -9,-3 -10,-4 -21,-17 -8,-12 -9,-13 -11,-37 -1,-14 0,-15 9,-7 5,5 6,7 8,18 2,18 9,24 31,24 17,0 24,-3 28,-12 1,-3 3,-8 3,-10 0,-9 4,-17 9,-20 3,-2 6,-3 7,-3 2,0 0,32 -3,37 -3,7 -17,23 -21,25 -6,2 -31,4 -39,2 z"
               id="path48"
               style="fill:#000000"
               inkscape:connector-curvature="0" />
            <path
               d="m 373,67 c -20,1 -22,2 -33,7 -12,6 -26,19 -32,32 -4,8 -4,11 -4,28 0,17 0,20 4,27 2,5 5,8 5,7 1,0 1,-9 1,-19 0,-18 0,-19 6,-32 7,-13 14,-22 12,-14 -2,8 -6,16 -9,24 -4,8 -5,12 -5,27 0,16 0,19 -3,20 -6,2 -8,4 -8,7 -1,7 4,12 18,18 11,4 15,7 18,11 3,5 6,8 14,10 1,1 11,1 22,1 l 20,-1 8,-8 c 5,-6 10,-10 16,-12 19,-7 26,-21 13,-24 l -7,-2 0,-12 c 0,-12 1,-17 4,-17 1,0 1,5 1,11 0,13 2,14 8,6 5,-7 6,-38 2,-52 -5,-18 -21,-34 -41,-40 -7,-3 -13,-3 -30,-3 z m 2,101 c 2,0 7,20 7,27 0,4 0,4 -4,1 -4,-2 -5,-2 -9,0 -5,4 -6,3 -5,0 1,-2 1,-6 2,-9 2,-8 7,-19 9,-19 z"
               id="path50"
               style="fill:#000000"
               inkscape:connector-curvature="0" />
          </g>
        </g>
        <g
           id="g52">
          <g
             transform="translate(0.3610352,0)"
             id="g54">
            <g
               transform="matrix(1.06193,0,0,1.06193,-21.967835,-22.979385)"
               id="g56">
              <path
                 d="m 332.53,149.92 c 12.08,0 33.66,-0.11 37.16,-0.11 0,0.26 -0.01,0.34 -0.01,0.6 -2.44,0 -14.1,0 -19.43,0 7.84,1.61 10.66,4.73 12.38,8.8 0.69,-3.31 3.22,-4.45 7.06,-4.45 0,0.34 -0.02,0.18 -0.02,0.76 -1.72,-0.05 -4.99,0.1 -6.49,4.79 0.12,1.84 -0.29,4.02 -1.11,6.06 -5.58,13.96 -21.22,27.64 -33.88,27.64 -11.51,0 -21.07,-9.11 -21.07,-24.22 0,-17.23 12.96,-19.87 25.41,-19.87 z"
                 id="path58"
                 style="fill:#000000;stroke:#ffffff;stroke-width:2.89586663;stroke-miterlimit:4;stroke-dasharray:none"
                 inkscape:connector-curvature="0" />
            </g>
            <g
               transform="matrix(-1.06193,0,0,1.06193,763.46257,-22.977952)"
               id="g60">
              <path
                 d="m 332.53,149.92 c 12.08,0 33.66,-0.11 37.16,-0.11 0,0.26 -0.01,0.34 -0.01,0.6 -2.44,0 -14.1,0 -19.43,0 7.84,1.61 10.66,4.73 12.38,8.8 0.69,-3.31 3.22,-4.45 7.06,-4.45 0,0.34 -0.02,0.18 -0.02,0.76 -1.72,-0.05 -4.99,0.1 -6.49,4.79 0.12,1.84 -0.29,4.02 -1.11,6.06 -5.58,13.96 -21.22,27.64 -33.88,27.64 -11.51,0 -21.07,-9.11 -21.07,-24.22 0,-17.23 12.96,-19.87 25.41,-19.87 z"
                 id="path62"
                 style="fill:#000000;stroke:#ffffff;stroke-width:2.89586663;stroke-miterlimit:4;stroke-dasharray:none"
                 inkscape:connector-curvature="0" />
            </g>
          </g>
          <path
             d="m 318.84575,142.86601 c -2.39657,-1.01756 -9.95664,7.03077 -9.48446,15.93495 0.43414,8.21641 3.11455,1.02571 3.36869,-1.98954 0.76265,-8.77726 9.05366,-12.70281 6.11577,-13.94541 z"
             id="path64"
             style="fill:#ffffff"
             inkscape:connector-curvature="0" />
        </g>
      </g>
    </g>
  </g>
</svg>
